<?xml version="1.0" encoding="UTF-8"?> <svg xmlns="http://www.w3.org/2000/svg" width="89" height="61" viewBox="0 0 89 61" fill="none"> <path d="M17.928 48H9.828V21.864H0.54V16.302H2.052C4.176 16.302 5.904 15.978 7.236 15.33C8.568 14.682 9.666 13.512 10.53 11.82H17.928V48ZM38.0998 48.54C26.5798 48.54 20.8198 44.616 20.8198 36.768V36.282H29.1898V36.768C29.1898 38.352 29.8558 39.486 31.1878 40.17C32.5198 40.818 34.8598 41.142 38.2078 41.142C41.2678 41.142 43.3738 40.746 44.5258 39.954C45.7138 39.126 46.3078 37.722 46.3078 35.742C46.3078 33.726 45.7318 32.322 44.5798 31.53C43.4278 30.702 41.3218 30.288 38.2618 30.288C35.7058 30.288 33.7258 30.468 32.3218 30.828C30.9538 31.188 29.9458 31.836 29.2978 32.772L28.7038 32.718V32.772L21.0898 32.556L23.1418 11.82H52.9498V19.11H30.3238L29.1898 28.56L29.6758 28.614C30.4318 27.354 31.8358 26.256 33.8878 25.32C35.9398 24.348 38.4958 23.862 41.5558 23.862C45.9478 23.862 49.2598 24.888 51.4918 26.94C53.7598 28.956 54.8938 31.854 54.8938 35.634C54.8938 39.666 53.4898 42.834 50.6818 45.138C47.8738 47.406 43.6798 48.54 38.0998 48.54Z" fill="black"></path> <path d="M78.28 34.952H71.314V26.258H62.728V19.562H71.314V10.868H78.28V19.562H86.866V26.258H78.28V34.952Z" fill="#FFB800"></path> </svg> 