<?xml version="1.0" encoding="UTF-8"?> <svg xmlns="http://www.w3.org/2000/svg" width="84" height="45" viewBox="0 0 84 45" fill="none"> <path d="M22.04 44.64C8.216 44.64 0.6 35.936 0.6 22.56C0.6 9.248 8.216 0.48 22.04 0.48C35.8 0.48 43.48 9.248 43.48 22.56C43.48 35.936 35.8 44.64 22.04 44.64ZM22.04 35.296C30.168 35.296 33.176 31.776 33.176 22.56C33.176 13.344 30.168 9.824 22.04 9.824C13.848 9.824 10.904 13.344 10.904 22.56C10.904 31.776 13.848 35.296 22.04 35.296ZM65.064 44H53.992C53.992 24.736 65 16.224 73.064 10.464V9.76H45.992V1.12H83.048V8.864C71.144 20.128 65.064 27.872 65.064 44Z" fill="#1670F8"></path> </svg> 