<?xml version="1.0" encoding="UTF-8"?> <svg xmlns="http://www.w3.org/2000/svg" width="230" height="215" viewBox="0 0 230 215" fill="none"> <rect width="229.5" height="214.5" rx="12" fill="white"></rect> <path d="M27.5308 189.795H28.1913V193.695C28.1913 194.043 28.1274 194.338 27.9996 194.581C27.8717 194.825 27.6915 195.009 27.4589 195.135C27.2263 195.262 26.952 195.325 26.6359 195.325C26.3376 195.325 26.0722 195.27 25.8396 195.162C25.607 195.052 25.4241 194.896 25.2909 194.693C25.1578 194.491 25.0912 194.25 25.0912 193.972H25.741C25.741 194.126 25.7792 194.261 25.8556 194.376C25.9337 194.49 26.0402 194.579 26.1752 194.643C26.3101 194.707 26.4637 194.739 26.6359 194.739C26.8259 194.739 26.9875 194.699 27.1206 194.619C27.2538 194.539 27.355 194.422 27.4243 194.267C27.4953 194.111 27.5308 193.92 27.5308 193.695V189.795ZM30.6336 195.346C30.3744 195.346 30.1391 195.297 29.9278 195.199C29.7165 195.1 29.5487 194.957 29.4244 194.771C29.3002 194.582 29.238 194.355 29.238 194.089C29.238 193.854 29.2842 193.664 29.3765 193.519C29.4688 193.371 29.5922 193.256 29.7467 193.173C29.9012 193.089 30.0716 193.027 30.2581 192.986C30.4463 192.944 30.6354 192.91 30.8254 192.885C31.074 192.853 31.2755 192.829 31.43 192.813C31.5862 192.795 31.6998 192.766 31.7709 192.725C31.8437 192.684 31.8801 192.613 31.8801 192.512V192.491C31.8801 192.228 31.8081 192.024 31.6643 191.878C31.5223 191.733 31.3066 191.66 31.0171 191.66C30.7171 191.66 30.4818 191.725 30.3113 191.857C30.1409 191.988 30.021 192.129 29.9518 192.278L29.3552 192.065C29.4617 191.816 29.6038 191.623 29.7813 191.484C29.9607 191.344 30.156 191.246 30.3673 191.191C30.5803 191.134 30.7899 191.106 30.9958 191.106C31.1272 191.106 31.2781 191.122 31.4486 191.154C31.6208 191.184 31.7868 191.247 31.9466 191.343C32.1082 191.439 32.2423 191.583 32.3488 191.777C32.4553 191.971 32.5086 192.23 32.5086 192.555V195.25H31.8801V194.696H31.8481C31.8055 194.785 31.7345 194.88 31.635 194.981C31.5356 195.082 31.4033 195.168 31.2382 195.239C31.0731 195.31 30.8715 195.346 30.6336 195.346ZM30.7295 194.781C30.9781 194.781 31.1876 194.732 31.358 194.635C31.5303 194.537 31.6599 194.411 31.7469 194.257C31.8357 194.102 31.8801 193.94 31.8801 193.769V193.194C31.8534 193.226 31.7948 193.255 31.7043 193.282C31.6155 193.307 31.5125 193.329 31.3953 193.348C31.2799 193.366 31.1672 193.382 31.0571 193.396C30.9488 193.409 30.8609 193.419 30.7934 193.428C30.6301 193.45 30.4774 193.484 30.3353 193.532C30.195 193.578 30.0814 193.648 29.9944 193.743C29.9092 193.835 29.8666 193.961 29.8666 194.121C29.8666 194.339 29.9474 194.504 30.1089 194.616C30.2723 194.726 30.4791 194.781 30.7295 194.781ZM34.2844 192.789V195.25H33.6559V191.159H34.2631V191.798H34.3164C34.4122 191.591 34.5578 191.424 34.7532 191.298C34.9485 191.17 35.2006 191.106 35.5095 191.106C35.7865 191.106 36.0289 191.163 36.2366 191.276C36.4444 191.388 36.606 191.559 36.7214 191.788C36.8368 192.015 36.8945 192.303 36.8945 192.651V195.25H36.2659V192.693C36.2659 192.372 36.1825 192.121 36.0156 191.942C35.8487 191.761 35.6196 191.67 35.3284 191.67C35.1278 191.67 34.9485 191.714 34.7904 191.801C34.6342 191.888 34.5108 192.015 34.4202 192.182C34.3297 192.349 34.2844 192.551 34.2844 192.789Z" fill="black" fill-opacity="0.45"></path> <path d="M64.098 195.25V189.795H67.3686V190.381H64.7585V192.224H67.1236V192.81H64.7585V195.25H64.098ZM69.8295 195.335C69.4354 195.335 69.0953 195.248 68.8095 195.074C68.5254 194.898 68.3061 194.653 68.1516 194.339C67.9989 194.023 67.9226 193.656 67.9226 193.237C67.9226 192.817 67.9989 192.448 68.1516 192.129C68.3061 191.807 68.521 191.557 68.7962 191.377C69.0732 191.196 69.3963 191.106 69.7656 191.106C69.9787 191.106 70.1891 191.141 70.3968 191.212C70.6046 191.283 70.7937 191.399 70.9641 191.559C71.1346 191.717 71.2704 191.926 71.3716 192.187C71.4728 192.448 71.5234 192.77 71.5234 193.151V193.418H68.37V192.874H70.8842C70.8842 192.643 70.8381 192.437 70.7457 192.256C70.6552 192.075 70.5256 191.932 70.3569 191.828C70.19 191.723 69.9929 191.67 69.7656 191.67C69.5153 191.67 69.2987 191.733 69.1158 191.857C68.9347 191.979 68.7953 192.139 68.6976 192.336C68.6 192.533 68.5511 192.745 68.5511 192.97V193.332C68.5511 193.641 68.6044 193.903 68.7109 194.118C68.8192 194.331 68.9693 194.494 69.161 194.605C69.3528 194.716 69.5756 194.771 69.8295 194.771C69.9947 194.771 70.1438 194.748 70.277 194.701C70.4119 194.653 70.5282 194.582 70.6259 194.488C70.7235 194.392 70.799 194.273 70.8523 194.131L71.4595 194.302C71.3956 194.508 71.2882 194.689 71.1373 194.845C70.9863 195 70.7999 195.12 70.5779 195.207C70.356 195.293 70.1065 195.335 69.8295 195.335ZM72.5648 195.25V189.795H73.1934V191.809H73.2466C73.2928 191.738 73.3567 191.647 73.4384 191.537C73.5218 191.425 73.6408 191.326 73.7953 191.239C73.9515 191.15 74.1628 191.106 74.4292 191.106C74.7736 191.106 75.0772 191.192 75.34 191.364C75.6028 191.536 75.8079 191.781 75.9553 192.097C76.1026 192.413 76.1763 192.786 76.1763 193.215C76.1763 193.648 76.1026 194.024 75.9553 194.342C75.8079 194.658 75.6037 194.903 75.3427 195.077C75.0817 195.249 74.7807 195.335 74.4398 195.335C74.177 195.335 73.9666 195.292 73.8086 195.205C73.6506 195.116 73.5289 195.016 73.4437 194.904C73.3585 194.79 73.2928 194.696 73.2466 194.621H73.1721V195.25H72.5648ZM73.1827 193.205C73.1827 193.513 73.228 193.786 73.3185 194.022C73.4091 194.257 73.5414 194.44 73.7154 194.574C73.8894 194.705 74.1025 194.771 74.3546 194.771C74.6174 194.771 74.8366 194.701 75.0124 194.563C75.19 194.423 75.3232 194.234 75.4119 193.998C75.5025 193.76 75.5478 193.496 75.5478 193.205C75.5478 192.917 75.5034 192.658 75.4146 192.427C75.3276 192.194 75.1953 192.01 75.0178 191.876C74.842 191.739 74.6209 191.67 74.3546 191.67C74.0989 191.67 73.8841 191.735 73.71 191.865C73.536 191.993 73.4047 192.172 73.3159 192.403C73.2271 192.632 73.1827 192.899 73.1827 193.205Z" fill="black" fill-opacity="0.45"></path> <path d="M151.17 195.25H150.477L152.48 189.795H153.162L155.165 195.25H154.472L152.842 190.658H152.8L151.17 195.25ZM151.425 193.119H154.217V193.705H151.425V193.119ZM155.929 196.784V191.159H156.536V191.809H156.611C156.657 191.738 156.721 191.647 156.803 191.537C156.886 191.425 157.005 191.326 157.16 191.239C157.316 191.15 157.527 191.106 157.793 191.106C158.138 191.106 158.441 191.192 158.704 191.364C158.967 191.536 159.172 191.781 159.319 192.097C159.467 192.413 159.541 192.786 159.541 193.215C159.541 193.648 159.467 194.024 159.319 194.342C159.172 194.658 158.968 194.903 158.707 195.077C158.446 195.249 158.145 195.335 157.804 195.335C157.541 195.335 157.331 195.292 157.173 195.205C157.015 195.116 156.893 195.016 156.808 194.904C156.723 194.79 156.657 194.696 156.611 194.621H156.558V196.784H155.929ZM156.547 193.205C156.547 193.513 156.592 193.786 156.683 194.022C156.773 194.257 156.906 194.44 157.08 194.574C157.254 194.705 157.467 194.771 157.719 194.771C157.982 194.771 158.201 194.701 158.377 194.563C158.554 194.423 158.687 194.234 158.776 193.998C158.867 193.76 158.912 193.496 158.912 193.205C158.912 192.917 158.868 192.658 158.779 192.427C158.692 192.194 158.56 192.01 158.382 191.876C158.206 191.739 157.985 191.67 157.719 191.67C157.463 191.67 157.248 191.735 157.074 191.865C156.9 191.993 156.769 192.172 156.68 192.403C156.591 192.632 156.547 192.899 156.547 193.205ZM160.499 195.25V191.159H161.107V191.777H161.149C161.224 191.575 161.359 191.41 161.554 191.284C161.749 191.158 161.97 191.095 162.215 191.095C162.261 191.095 162.318 191.096 162.388 191.098C162.457 191.1 162.509 191.102 162.545 191.106V191.745C162.524 191.74 162.475 191.732 162.398 191.721C162.324 191.709 162.245 191.702 162.161 191.702C161.962 191.702 161.785 191.744 161.629 191.828C161.474 191.909 161.352 192.023 161.261 192.169C161.172 192.312 161.128 192.477 161.128 192.661V195.25H160.499Z" fill="black" fill-opacity="0.45"></path> <path d="M189.697 189.795H190.485L192.339 194.323H192.403L194.257 189.795H195.045V195.25H194.427V191.106H194.374L192.669 195.25H192.073L190.368 191.106H190.315V195.25H189.697V189.795ZM197.488 195.346C197.229 195.346 196.994 195.297 196.782 195.199C196.571 195.1 196.403 194.957 196.279 194.771C196.155 194.582 196.093 194.355 196.093 194.089C196.093 193.854 196.139 193.664 196.231 193.519C196.323 193.371 196.447 193.256 196.601 193.173C196.756 193.089 196.926 193.027 197.113 192.986C197.301 192.944 197.49 192.91 197.68 192.885C197.928 192.853 198.13 192.829 198.284 192.813C198.441 192.795 198.554 192.766 198.625 192.725C198.698 192.684 198.735 192.613 198.735 192.512V192.491C198.735 192.228 198.663 192.024 198.519 191.878C198.377 191.733 198.161 191.66 197.872 191.66C197.572 191.66 197.336 191.725 197.166 191.857C196.995 191.988 196.876 192.129 196.806 192.278L196.21 192.065C196.316 191.816 196.458 191.623 196.636 191.484C196.815 191.344 197.01 191.246 197.222 191.191C197.435 191.134 197.644 191.106 197.85 191.106C197.982 191.106 198.133 191.122 198.303 191.154C198.475 191.184 198.641 191.247 198.801 191.343C198.963 191.439 199.097 191.583 199.203 191.777C199.31 191.971 199.363 192.23 199.363 192.555V195.25H198.735V194.696H198.703C198.66 194.785 198.589 194.88 198.49 194.981C198.39 195.082 198.258 195.168 198.093 195.239C197.928 195.31 197.726 195.346 197.488 195.346ZM197.584 194.781C197.833 194.781 198.042 194.732 198.213 194.635C198.385 194.537 198.514 194.411 198.601 194.257C198.69 194.102 198.735 193.94 198.735 193.769V193.194C198.708 193.226 198.649 193.255 198.559 193.282C198.47 193.307 198.367 193.329 198.25 193.348C198.134 193.366 198.022 193.382 197.912 193.396C197.803 193.409 197.715 193.419 197.648 193.428C197.485 193.45 197.332 193.484 197.19 193.532C197.05 193.578 196.936 193.648 196.849 193.743C196.764 193.835 196.721 193.961 196.721 194.121C196.721 194.339 196.802 194.504 196.963 194.616C197.127 194.726 197.334 194.781 197.584 194.781ZM200.769 196.784C200.662 196.784 200.567 196.775 200.484 196.757C200.4 196.741 200.343 196.725 200.311 196.71L200.47 196.156C200.623 196.195 200.758 196.209 200.875 196.198C200.992 196.188 201.096 196.135 201.187 196.041C201.279 195.949 201.364 195.799 201.44 195.591L201.557 195.271L200.044 191.159H200.726L201.855 194.419H201.898L203.027 191.159H203.709L201.973 195.847C201.894 196.058 201.798 196.233 201.682 196.371C201.567 196.512 201.433 196.615 201.28 196.683C201.129 196.75 200.959 196.784 200.769 196.784Z" fill="black" fill-opacity="0.45"></path> <path d="M103.849 190.545H104.848L106.585 194.786H106.648L108.385 190.545H109.384V196H108.601V192.053H108.55L106.941 195.992H106.292L104.683 192.05H104.632V196H103.849V190.545ZM111.707 196.091C111.448 196.091 111.213 196.043 111.004 195.947C110.794 195.849 110.628 195.708 110.506 195.523C110.385 195.339 110.325 195.112 110.325 194.844C110.325 194.613 110.369 194.423 110.458 194.274C110.546 194.125 110.666 194.007 110.817 193.92C110.968 193.833 111.137 193.767 111.323 193.723C111.51 193.678 111.7 193.645 111.893 193.622C112.138 193.593 112.337 193.57 112.49 193.552C112.643 193.533 112.754 193.502 112.823 193.459C112.892 193.417 112.927 193.347 112.927 193.251V193.233C112.927 193 112.861 192.82 112.73 192.692C112.6 192.564 112.406 192.5 112.149 192.5C111.881 192.5 111.67 192.56 111.515 192.679C111.362 192.796 111.257 192.926 111.198 193.07L110.45 192.9C110.538 192.651 110.668 192.451 110.839 192.298C111.011 192.143 111.209 192.032 111.432 191.962C111.656 191.891 111.891 191.856 112.138 191.856C112.302 191.856 112.475 191.875 112.658 191.914C112.842 191.952 113.015 192.021 113.174 192.122C113.336 192.223 113.468 192.368 113.571 192.556C113.674 192.743 113.726 192.985 113.726 193.283V196H112.948V195.441H112.916C112.864 195.544 112.787 195.645 112.684 195.744C112.581 195.844 112.449 195.926 112.287 195.992C112.126 196.058 111.932 196.091 111.707 196.091ZM111.88 195.451C112.1 195.451 112.288 195.408 112.445 195.321C112.603 195.234 112.722 195.12 112.804 194.98C112.888 194.838 112.929 194.686 112.929 194.525V193.997C112.901 194.026 112.846 194.052 112.764 194.077C112.684 194.1 112.593 194.121 112.49 194.138C112.387 194.154 112.287 194.169 112.189 194.184C112.091 194.196 112.01 194.207 111.944 194.216C111.789 194.235 111.648 194.268 111.52 194.314C111.394 194.36 111.293 194.427 111.217 194.514C111.142 194.599 111.105 194.713 111.105 194.855C111.105 195.052 111.178 195.201 111.323 195.302C111.469 195.402 111.654 195.451 111.88 195.451ZM114.786 196V191.909H115.556V192.559H115.599C115.673 192.339 115.805 192.166 115.993 192.04C116.183 191.912 116.398 191.848 116.637 191.848C116.687 191.848 116.746 191.85 116.813 191.853C116.882 191.857 116.937 191.861 116.976 191.866V192.628C116.944 192.619 116.887 192.61 116.805 192.599C116.723 192.586 116.642 192.58 116.56 192.58C116.372 192.58 116.204 192.62 116.057 192.7C115.911 192.778 115.796 192.887 115.71 193.028C115.625 193.166 115.583 193.324 115.583 193.502V196H114.786ZM119.241 196.083C118.845 196.083 118.505 195.993 118.219 195.814C117.935 195.632 117.716 195.383 117.564 195.065C117.411 194.747 117.334 194.383 117.334 193.973C117.334 193.558 117.413 193.191 117.569 192.873C117.725 192.554 117.945 192.304 118.229 192.125C118.513 191.945 118.848 191.856 119.233 191.856C119.544 191.856 119.821 191.914 120.064 192.029C120.308 192.143 120.504 192.302 120.653 192.508C120.804 192.714 120.894 192.955 120.922 193.23H120.147C120.104 193.038 120.007 192.873 119.854 192.735C119.703 192.596 119.501 192.527 119.247 192.527C119.025 192.527 118.83 192.586 118.663 192.703C118.498 192.818 118.37 192.983 118.277 193.198C118.185 193.411 118.139 193.663 118.139 193.955C118.139 194.253 118.184 194.51 118.275 194.727C118.365 194.944 118.493 195.111 118.658 195.23C118.825 195.349 119.021 195.409 119.247 195.409C119.398 195.409 119.534 195.381 119.657 195.326C119.781 195.269 119.885 195.189 119.969 195.084C120.054 194.979 120.113 194.853 120.147 194.706H120.922C120.894 194.97 120.807 195.206 120.664 195.414C120.52 195.622 120.327 195.785 120.086 195.904C119.846 196.023 119.565 196.083 119.241 196.083ZM122.57 193.571V196H121.774V190.545H122.559V192.575H122.61C122.706 192.355 122.852 192.18 123.049 192.05C123.246 191.921 123.504 191.856 123.822 191.856C124.102 191.856 124.347 191.914 124.557 192.029C124.768 192.144 124.931 192.317 125.047 192.546C125.164 192.773 125.223 193.057 125.223 193.398V196H124.426V193.494C124.426 193.194 124.349 192.961 124.195 192.796C124.04 192.629 123.825 192.546 123.55 192.546C123.362 192.546 123.193 192.586 123.044 192.665C122.897 192.745 122.78 192.863 122.695 193.017C122.612 193.17 122.57 193.354 122.57 193.571Z" fill="black" fill-opacity="0.45"></path> <line x1="15" y1="47.025" x2="214.5" y2="47.025" stroke="#E5E5EF" stroke-width="0.45"></line> <path d="M15.3729 28.4448V27.1136H21.6445V28.4448H19.3066V34.75H17.7108V28.4448H15.3729ZM24.4047 34.8619C23.8255 34.8619 23.3246 34.7388 22.902 34.4927C22.4819 34.2441 22.1575 33.8986 21.9288 33.4561C21.7002 33.0112 21.5858 32.4954 21.5858 31.9087C21.5858 31.3171 21.7002 30.8001 21.9288 30.3576C22.1575 29.9126 22.4819 29.5671 22.902 29.321C23.3246 29.0724 23.8255 28.9482 24.4047 28.9482C24.9839 28.9482 25.4835 29.0724 25.9036 29.321C26.3262 29.5671 26.6519 29.9126 26.8805 30.3576C27.1092 30.8001 27.2236 31.3171 27.2236 31.9087C27.2236 32.4954 27.1092 33.0112 26.8805 33.4561C26.6519 33.8986 26.3262 34.2441 25.9036 34.4927C25.4835 34.7388 24.9839 34.8619 24.4047 34.8619ZM24.4122 33.6314C24.6756 33.6314 24.8956 33.5568 25.0721 33.4077C25.2486 33.256 25.3816 33.0497 25.4711 32.7887C25.5631 32.5277 25.6091 32.2306 25.6091 31.8975C25.6091 31.5645 25.5631 31.2674 25.4711 31.0064C25.3816 30.7454 25.2486 30.5391 25.0721 30.3874C24.8956 30.2358 24.6756 30.16 24.4122 30.16C24.1462 30.16 23.9225 30.2358 23.741 30.3874C23.562 30.5391 23.4265 30.7454 23.3346 31.0064C23.2451 31.2674 23.2003 31.5645 23.2003 31.8975C23.2003 32.2306 23.2451 32.5277 23.3346 32.7887C23.4265 33.0497 23.562 33.256 23.741 33.4077C23.9225 33.5568 24.1462 33.6314 24.4122 33.6314ZM31.3028 29.0227V30.2159H27.8537V29.0227H31.3028ZM28.6368 27.6506H30.2252V32.9901C30.2252 33.1367 30.2476 33.2511 30.2923 33.3331C30.337 33.4126 30.3992 33.4686 30.4787 33.5009C30.5608 33.5332 30.6552 33.5494 30.7621 33.5494C30.8367 33.5494 30.9113 33.5431 30.9858 33.5307C31.0604 33.5158 31.1176 33.5046 31.1574 33.4972L31.4072 34.6792C31.3276 34.704 31.2158 34.7326 31.0716 34.7649C30.9274 34.7997 30.7522 34.8208 30.5459 34.8283C30.163 34.8432 29.8275 34.7923 29.5391 34.6754C29.2532 34.5586 29.0308 34.3771 28.8717 34.131C28.7126 33.8849 28.6343 33.5742 28.6368 33.1989V27.6506ZM33.9707 34.8581C33.6052 34.8581 33.2796 34.7947 32.9937 34.668C32.7079 34.5387 32.4817 34.3485 32.3151 34.0975C32.1511 33.8439 32.069 33.5282 32.069 33.1504C32.069 32.8322 32.1274 32.565 32.2443 32.3487C32.3611 32.1325 32.5202 31.9585 32.7215 31.8267C32.9229 31.695 33.1516 31.5955 33.4076 31.5284C33.6661 31.4613 33.9371 31.4141 34.2205 31.3867C34.5536 31.3519 34.822 31.3196 35.0259 31.2898C35.2297 31.2575 35.3776 31.2102 35.4696 31.1481C35.5616 31.0859 35.6076 30.994 35.6076 30.8722V30.8498C35.6076 30.6136 35.533 30.4309 35.3838 30.3017C35.2372 30.1724 35.0284 30.1078 34.7574 30.1078C34.4715 30.1078 34.2441 30.1712 34.0751 30.2979C33.906 30.4222 33.7942 30.5788 33.7395 30.7678L32.2704 30.6484C32.3449 30.3004 32.4916 29.9996 32.7104 29.7461C32.9291 29.4901 33.2112 29.2937 33.5568 29.157C33.9048 29.0178 34.3075 28.9482 34.7649 28.9482C35.0831 28.9482 35.3876 28.9854 35.6784 29.06C35.9717 29.1346 36.2315 29.2502 36.4577 29.4068C36.6864 29.5634 36.8666 29.7647 36.9984 30.0108C37.1301 30.2544 37.196 30.5465 37.196 30.8871V34.75H35.6896V33.9558H35.6448C35.5529 34.1348 35.4298 34.2926 35.2757 34.4293C35.1216 34.5636 34.9364 34.6692 34.7201 34.7463C34.5039 34.8208 34.254 34.8581 33.9707 34.8581ZM34.4256 33.7619C34.6592 33.7619 34.8655 33.7159 35.0445 33.6239C35.2235 33.5295 35.3639 33.4027 35.4659 33.2436C35.5678 33.0845 35.6187 32.9043 35.6187 32.7029V32.0952C35.569 32.1275 35.5007 32.1573 35.4137 32.1847C35.3291 32.2095 35.2334 32.2331 35.1266 32.2555C35.0197 32.2754 34.9128 32.294 34.8059 32.3114C34.699 32.3263 34.6021 32.34 34.515 32.3525C34.3286 32.3798 34.1658 32.4233 34.0266 32.483C33.8874 32.5426 33.7793 32.6234 33.7022 32.7253C33.6251 32.8248 33.5866 32.949 33.5866 33.0982C33.5866 33.3145 33.6649 33.4798 33.8215 33.5941C33.9806 33.706 34.182 33.7619 34.4256 33.7619ZM40.0167 27.1136V34.75H38.4283V27.1136H40.0167ZM43.7492 34.75V27.1136H46.8067C47.3685 27.1136 47.837 27.1969 48.2124 27.3635C48.5878 27.53 48.8699 27.7612 49.0588 28.057C49.2477 28.3503 49.3422 28.6884 49.3422 29.0712C49.3422 29.3695 49.2825 29.6317 49.1632 29.858C49.0439 30.0817 48.8798 30.2656 48.671 30.4098C48.4647 30.5515 48.2286 30.6522 47.9626 30.7118V30.7864C48.2534 30.7988 48.5256 30.8809 48.7792 31.0325C49.0352 31.1841 49.2428 31.3967 49.4019 31.6701C49.5609 31.9411 49.6405 32.2642 49.6405 32.6396C49.6405 33.0447 49.5398 33.4064 49.3385 33.7246C49.1396 34.0403 48.845 34.2901 48.4548 34.4741C48.0645 34.658 47.5835 34.75 47.0118 34.75H43.7492ZM45.3637 33.43H46.6799C47.1298 33.43 47.458 33.3443 47.6643 33.1728C47.8706 32.9988 47.9738 32.7676 47.9738 32.4792C47.9738 32.2679 47.9228 32.0815 47.8209 31.9199C47.719 31.7583 47.5736 31.6316 47.3846 31.5396C47.1982 31.4476 46.9757 31.4016 46.7172 31.4016H45.3637V33.43ZM45.3637 30.3091H46.5606C46.7818 30.3091 46.9782 30.2706 47.1497 30.1935C47.3237 30.114 47.4604 30.0021 47.5599 29.858C47.6618 29.7138 47.7128 29.541 47.7128 29.3397C47.7128 29.0637 47.6146 28.8413 47.4182 28.6722C47.2243 28.5032 46.9484 28.4187 46.5904 28.4187H45.3637V30.3091ZM53.2489 34.8619C52.6697 34.8619 52.1689 34.7388 51.7463 34.4927C51.3262 34.2441 51.0018 33.8986 50.7731 33.4561C50.5444 33.0112 50.43 32.4954 50.43 31.9087C50.43 31.3171 50.5444 30.8001 50.7731 30.3576C51.0018 29.9126 51.3262 29.5671 51.7463 29.321C52.1689 29.0724 52.6697 28.9482 53.2489 28.9482C53.8281 28.9482 54.3278 29.0724 54.7479 29.321C55.1705 29.5671 55.4961 29.9126 55.7248 30.3576C55.9535 30.8001 56.0678 31.3171 56.0678 31.9087C56.0678 32.4954 55.9535 33.0112 55.7248 33.4561C55.4961 33.8986 55.1705 34.2441 54.7479 34.4927C54.3278 34.7388 53.8281 34.8619 53.2489 34.8619ZM53.2564 33.6314C53.5199 33.6314 53.7399 33.5568 53.9164 33.4077C54.0929 33.256 54.2259 33.0497 54.3153 32.7887C54.4073 32.5277 54.4533 32.2306 54.4533 31.8975C54.4533 31.5645 54.4073 31.2674 54.3153 31.0064C54.2259 30.7454 54.0929 30.5391 53.9164 30.3874C53.7399 30.2358 53.5199 30.16 53.2564 30.16C52.9904 30.16 52.7667 30.2358 52.5852 30.3874C52.4063 30.5391 52.2708 30.7454 52.1788 31.0064C52.0893 31.2674 52.0446 31.5645 52.0446 31.8975C52.0446 32.2306 52.0893 32.5277 52.1788 32.7887C52.2708 33.0497 52.4063 33.256 52.5852 33.4077C52.7667 33.5568 52.9904 33.6314 53.2564 33.6314ZM58.6891 31.4389V34.75H57.1007V29.0227H58.6145V30.0332H58.6816C58.8084 29.7001 59.021 29.4366 59.3192 29.2427C59.6175 29.0463 59.9792 28.9482 60.4043 28.9482C60.802 28.9482 61.1488 29.0352 61.4446 29.2092C61.7404 29.3832 61.9703 29.6317 62.1344 29.9549C62.2985 30.2756 62.3805 30.6584 62.3805 31.1033V34.75H60.7921V31.3867C60.7946 31.0362 60.7051 30.7628 60.5236 30.5664C60.3422 30.3675 60.0923 30.2681 59.7741 30.2681C59.5604 30.2681 59.3714 30.3141 59.2074 30.4061C59.0458 30.498 58.919 30.6323 58.8271 30.8088C58.7376 30.9828 58.6916 31.1928 58.6891 31.4389ZM67.3052 32.3114V29.0227H68.8936V34.75H67.3686V33.7097H67.3089C67.1796 34.0453 66.9646 34.315 66.6638 34.5188C66.3655 34.7227 66.0014 34.8246 65.5713 34.8246C65.1885 34.8246 64.8517 34.7376 64.5609 34.5636C64.27 34.3896 64.0426 34.1422 63.8785 33.8216C63.7169 33.5009 63.6349 33.1168 63.6324 32.6694V29.0227H65.2208V32.386C65.2233 32.7241 65.3141 32.9913 65.493 33.1877C65.672 33.3841 65.9119 33.4822 66.2127 33.4822C66.4041 33.4822 66.5831 33.4387 66.7496 33.3517C66.9161 33.2623 67.0504 33.1305 67.1523 32.9565C67.2567 32.7825 67.3077 32.5675 67.3052 32.3114ZM74.9294 30.6559L73.4752 30.7454C73.4504 30.6211 73.3969 30.5092 73.3149 30.4098C73.2329 30.3079 73.1247 30.2271 72.9905 30.1674C72.8588 30.1053 72.7009 30.0742 72.517 30.0742C72.2709 30.0742 72.0633 30.1264 71.8943 30.2308C71.7252 30.3327 71.6407 30.4695 71.6407 30.641C71.6407 30.7777 71.6954 30.8933 71.8048 30.9877C71.9142 31.0822 72.1018 31.158 72.3678 31.2152L73.4044 31.424C73.9612 31.5384 74.3763 31.7223 74.6498 31.9759C74.9232 32.2294 75.0599 32.5625 75.0599 32.9751C75.0599 33.3505 74.9493 33.6799 74.7281 33.9632C74.5093 34.2466 74.2085 34.4679 73.8257 34.627C73.4454 34.7836 73.0067 34.8619 72.5095 34.8619C71.7513 34.8619 71.1473 34.704 70.6974 34.3883C70.2499 34.0701 69.9877 33.6376 69.9106 33.0907L71.4729 33.0087C71.5202 33.2399 71.6345 33.4164 71.816 33.5382C71.9974 33.6575 72.2298 33.7172 72.5132 33.7172C72.7916 33.7172 73.0154 33.6637 73.1844 33.5568C73.3559 33.4474 73.4429 33.307 73.4454 33.1355C73.4429 32.9913 73.382 32.8732 73.2627 32.7812C73.1434 32.6868 72.9594 32.6147 72.7108 32.565L71.719 32.3674C71.1597 32.2555 70.7433 32.0616 70.4699 31.7857C70.199 31.5098 70.0635 31.158 70.0635 30.7305C70.0635 30.3626 70.1629 30.0456 70.3618 29.7797C70.5631 29.5137 70.8453 29.3086 71.2082 29.1644C71.5736 29.0202 72.0012 28.9482 72.4909 28.9482C73.2142 28.9482 73.7835 29.101 74.1986 29.4068C74.6162 29.7125 74.8598 30.1289 74.9294 30.6559Z" fill="black"></path> <path d="M19.0078 17.75C18.9727 17.4531 18.8301 17.2227 18.5801 17.0586C18.3301 16.8945 18.0234 16.8125 17.6602 16.8125C17.3945 16.8125 17.1621 16.8555 16.9629 16.9414C16.7656 17.0273 16.6113 17.1455 16.5 17.2959C16.3906 17.4463 16.3359 17.6172 16.3359 17.8086C16.3359 17.9687 16.374 18.1064 16.4502 18.2217C16.5283 18.335 16.6279 18.4297 16.749 18.5059C16.8701 18.5801 16.9971 18.6416 17.1299 18.6904C17.2627 18.7373 17.3848 18.7754 17.4961 18.8047L18.1055 18.9687C18.2617 19.0098 18.4355 19.0664 18.627 19.1387C18.8203 19.2109 19.0049 19.3096 19.1807 19.4346C19.3584 19.5576 19.5049 19.7158 19.6201 19.9092C19.7354 20.1025 19.793 20.3398 19.793 20.6211C19.793 20.9453 19.708 21.2383 19.5381 21.5C19.3701 21.7617 19.124 21.9697 18.7998 22.124C18.4775 22.2783 18.0859 22.3555 17.625 22.3555C17.1953 22.3555 16.8232 22.2861 16.5088 22.1475C16.1963 22.0088 15.9502 21.8154 15.7705 21.5674C15.5928 21.3193 15.4922 21.0313 15.4688 20.7031H16.2188C16.2383 20.9297 16.3145 21.1172 16.4473 21.2656C16.582 21.4121 16.752 21.5215 16.957 21.5938C17.1641 21.6641 17.3867 21.6992 17.625 21.6992C17.9023 21.6992 18.1514 21.6543 18.3721 21.5645C18.5928 21.4727 18.7676 21.3457 18.8965 21.1836C19.0254 21.0195 19.0898 20.8281 19.0898 20.6094C19.0898 20.4102 19.0342 20.248 18.9229 20.123C18.8115 19.998 18.665 19.8965 18.4834 19.8184C18.3018 19.7402 18.1055 19.6719 17.8945 19.6133L17.1563 19.4023C16.6875 19.2676 16.3164 19.0752 16.043 18.8252C15.7695 18.5752 15.6328 18.248 15.6328 17.8437C15.6328 17.5078 15.7236 17.2148 15.9053 16.9648C16.0889 16.7129 16.335 16.5176 16.6436 16.3789C16.9541 16.2383 17.3008 16.168 17.6836 16.168C18.0703 16.168 18.4141 16.2373 18.7148 16.376C19.0156 16.5127 19.2539 16.7002 19.4297 16.9385C19.6074 17.1768 19.7012 17.4473 19.7109 17.75H19.0078ZM22.8508 17.75V18.3359H20.5188V17.75H22.8508ZM21.1985 16.6719H21.8899V20.9609C21.8899 21.1562 21.9182 21.3027 21.9749 21.4004C22.0334 21.4961 22.1077 21.5605 22.1975 21.5938C22.2893 21.625 22.386 21.6406 22.4875 21.6406C22.5637 21.6406 22.6262 21.6367 22.675 21.6289C22.7239 21.6191 22.7629 21.6113 22.7922 21.6055L22.9329 22.2266C22.886 22.2441 22.8206 22.2617 22.7366 22.2793C22.6526 22.2988 22.5461 22.3086 22.4172 22.3086C22.2219 22.3086 22.0305 22.2666 21.843 22.1826C21.6575 22.0986 21.5032 21.9707 21.3801 21.7988C21.259 21.627 21.1985 21.4102 21.1985 21.1484V16.6719ZM25.2151 22.3555C24.9299 22.3555 24.6711 22.3018 24.4387 22.1943C24.2063 22.085 24.0217 21.9277 23.885 21.7227C23.7483 21.5156 23.6799 21.2656 23.6799 20.9727C23.6799 20.7148 23.7307 20.5059 23.8323 20.3457C23.9338 20.1836 24.0696 20.0566 24.2395 19.9648C24.4094 19.873 24.5969 19.8047 24.802 19.7598C25.009 19.7129 25.217 19.6758 25.426 19.6484C25.6995 19.6133 25.9211 19.5869 26.0911 19.5693C26.2629 19.5498 26.3879 19.5176 26.4661 19.4727C26.5461 19.4277 26.5862 19.3496 26.5862 19.2383V19.2148C26.5862 18.9258 26.5071 18.7012 26.3489 18.541C26.1926 18.3809 25.9553 18.3008 25.637 18.3008C25.3069 18.3008 25.0481 18.373 24.8606 18.5176C24.6731 18.6621 24.5413 18.8164 24.4651 18.9805L23.8088 18.7461C23.926 18.4727 24.0823 18.2598 24.2776 18.1074C24.4749 17.9531 24.6897 17.8457 24.9221 17.7852C25.1565 17.7227 25.387 17.6914 25.6135 17.6914C25.7581 17.6914 25.9241 17.709 26.1116 17.7441C26.301 17.7773 26.4836 17.8467 26.6594 17.9521C26.8372 18.0576 26.9846 18.2168 27.1018 18.4297C27.219 18.6426 27.2776 18.9277 27.2776 19.2852V22.25H26.5862V21.6406H26.551C26.5042 21.7383 26.426 21.8428 26.3167 21.9541C26.2073 22.0654 26.0618 22.1602 25.8801 22.2383C25.6985 22.3164 25.4768 22.3555 25.2151 22.3555ZM25.3206 21.7344C25.594 21.7344 25.8245 21.6807 26.012 21.5732C26.2014 21.4658 26.344 21.3271 26.4397 21.1572C26.5374 20.9873 26.5862 20.8086 26.5862 20.6211V19.9883C26.5569 20.0234 26.4924 20.0557 26.3928 20.085C26.2952 20.1123 26.1819 20.1367 26.053 20.1582C25.926 20.1777 25.802 20.1953 25.6809 20.2109C25.5618 20.2246 25.4651 20.2363 25.3909 20.2461C25.2112 20.2695 25.0432 20.3076 24.887 20.3604C24.7327 20.4111 24.6077 20.4883 24.512 20.5918C24.4182 20.6934 24.3713 20.832 24.3713 21.0078C24.3713 21.248 24.4602 21.4297 24.6379 21.5527C24.8176 21.6738 25.0452 21.7344 25.3206 21.7344ZM30.4966 17.75V18.3359H28.1646V17.75H30.4966ZM28.8442 16.6719H29.5356V20.9609C29.5356 21.1562 29.564 21.3027 29.6206 21.4004C29.6792 21.4961 29.7534 21.5605 29.8433 21.5938C29.9351 21.625 30.0317 21.6406 30.1333 21.6406C30.2095 21.6406 30.272 21.6367 30.3208 21.6289C30.3696 21.6191 30.4087 21.6113 30.438 21.6055L30.5786 22.2266C30.5317 22.2441 30.4663 22.2617 30.3823 22.2793C30.2983 22.2988 30.1919 22.3086 30.063 22.3086C29.8677 22.3086 29.6763 22.2666 29.4888 22.1826C29.3032 22.0986 29.1489 21.9707 29.0259 21.7988C28.9048 21.627 28.8442 21.4102 28.8442 21.1484V16.6719ZM31.5366 22.25V17.75H32.228V22.25H31.5366ZM31.8882 17C31.7534 17 31.6372 16.9541 31.5396 16.8623C31.4438 16.7705 31.396 16.6602 31.396 16.5313C31.396 16.4023 31.4438 16.292 31.5396 16.2002C31.6372 16.1084 31.7534 16.0625 31.8882 16.0625C32.0229 16.0625 32.1382 16.1084 32.2339 16.2002C32.3315 16.292 32.3804 16.4023 32.3804 16.5313C32.3804 16.6602 32.3315 16.7705 32.2339 16.8623C32.1382 16.9541 32.0229 17 31.8882 17ZM36.6819 18.7578L36.0608 18.9336C36.0217 18.8301 35.9641 18.7295 35.8879 18.6318C35.8137 18.5322 35.7122 18.4502 35.5833 18.3857C35.4543 18.3213 35.2893 18.2891 35.0881 18.2891C34.8127 18.2891 34.5833 18.3525 34.3997 18.4795C34.218 18.6045 34.1272 18.7637 34.1272 18.957C34.1272 19.1289 34.1897 19.2646 34.3147 19.3643C34.4397 19.4639 34.635 19.5469 34.9006 19.6133L35.5686 19.7773C35.9709 19.875 36.2708 20.0244 36.468 20.2256C36.6653 20.4248 36.7639 20.6816 36.7639 20.9961C36.7639 21.2539 36.6897 21.4844 36.5413 21.6875C36.3948 21.8906 36.1897 22.0508 35.926 22.168C35.6624 22.2852 35.3557 22.3438 35.0061 22.3438C34.5471 22.3438 34.1672 22.2441 33.8665 22.0449C33.5657 21.8457 33.3752 21.5547 33.2952 21.1719L33.9514 21.0078C34.0139 21.25 34.1321 21.4316 34.3059 21.5527C34.4817 21.6738 34.7112 21.7344 34.9944 21.7344C35.3167 21.7344 35.5725 21.666 35.762 21.5293C35.9534 21.3906 36.0491 21.2246 36.0491 21.0312C36.0491 20.875 35.9944 20.7441 35.885 20.6387C35.7756 20.5312 35.6077 20.4512 35.3811 20.3984L34.6311 20.2227C34.219 20.125 33.9163 19.9736 33.7229 19.7686C33.5315 19.5615 33.4358 19.3027 33.4358 18.9922C33.4358 18.7383 33.5071 18.5137 33.6497 18.3184C33.7942 18.123 33.9905 17.9697 34.2385 17.8584C34.4885 17.7471 34.7717 17.6914 35.0881 17.6914C35.5334 17.6914 35.8831 17.7891 36.137 17.9844C36.3928 18.1797 36.5745 18.4375 36.6819 18.7578ZM39.7617 17.75V18.3359H37.4297V17.75H39.7617ZM38.1094 16.6719H38.8008V20.9609C38.8008 21.1562 38.8291 21.3027 38.8857 21.4004C38.9443 21.4961 39.0186 21.5605 39.1084 21.5938C39.2002 21.625 39.2969 21.6406 39.3984 21.6406C39.4746 21.6406 39.5371 21.6367 39.5859 21.6289C39.6348 21.6191 39.6738 21.6113 39.7031 21.6055L39.8438 22.2266C39.7969 22.2441 39.7314 22.2617 39.6475 22.2793C39.5635 22.2988 39.457 22.3086 39.3281 22.3086C39.1328 22.3086 38.9414 22.2666 38.7539 22.1826C38.5684 22.0986 38.4141 21.9707 38.291 21.7988C38.1699 21.627 38.1094 21.4102 38.1094 21.1484V16.6719ZM40.8018 22.25V17.75H41.4932V22.25H40.8018ZM41.1533 17C41.0186 17 40.9023 16.9541 40.8047 16.8623C40.709 16.7705 40.6611 16.6602 40.6611 16.5313C40.6611 16.4023 40.709 16.292 40.8047 16.2002C40.9023 16.1084 41.0186 16.0625 41.1533 16.0625C41.2881 16.0625 41.4033 16.1084 41.499 16.2002C41.5967 16.292 41.6455 16.4023 41.6455 16.5313C41.6455 16.6602 41.5967 16.7705 41.499 16.8623C41.4033 16.9541 41.2881 17 41.1533 17ZM44.5876 22.3438C44.1658 22.3438 43.8025 22.2441 43.4978 22.0449C43.1931 21.8457 42.9587 21.5713 42.7947 21.2217C42.6306 20.8721 42.5486 20.4727 42.5486 20.0234C42.5486 19.5664 42.6326 19.1631 42.8005 18.8135C42.9705 18.4619 43.2068 18.1875 43.5095 17.9902C43.8142 17.791 44.1697 17.6914 44.5759 17.6914C44.8923 17.6914 45.1775 17.75 45.4314 17.8672C45.6853 17.9844 45.8933 18.1484 46.0554 18.3594C46.2175 18.5703 46.3181 18.8164 46.3572 19.0977H45.6658C45.613 18.8926 45.4958 18.7109 45.3142 18.5527C45.1345 18.3926 44.8923 18.3125 44.5876 18.3125C44.3181 18.3125 44.0818 18.3828 43.8787 18.5234C43.6775 18.6621 43.5203 18.8584 43.407 19.1123C43.2957 19.3643 43.24 19.6602 43.24 20C43.24 20.3477 43.2947 20.6504 43.4041 20.9082C43.5154 21.166 43.6716 21.3662 43.8728 21.5088C44.0759 21.6514 44.3142 21.7227 44.5876 21.7227C44.7673 21.7227 44.9304 21.6914 45.0769 21.6289C45.2234 21.5664 45.3474 21.4766 45.449 21.3594C45.5505 21.2422 45.6228 21.1016 45.6658 20.9375H46.3572C46.3181 21.2031 46.2214 21.4424 46.0671 21.6553C45.9148 21.8662 45.7126 22.0342 45.4607 22.1592C45.2107 22.2822 44.9197 22.3438 44.5876 22.3438ZM50.5554 18.7578L49.9343 18.9336C49.8953 18.8301 49.8376 18.7295 49.7615 18.6318C49.6873 18.5322 49.5857 18.4502 49.4568 18.3857C49.3279 18.3213 49.1628 18.2891 48.9617 18.2891C48.6863 18.2891 48.4568 18.3525 48.2732 18.4795C48.0916 18.6045 48.0007 18.7637 48.0007 18.957C48.0007 19.1289 48.0632 19.2646 48.1882 19.3643C48.3132 19.4639 48.5085 19.5469 48.7742 19.6133L49.4421 19.7773C49.8445 19.875 50.1443 20.0244 50.3416 20.2256C50.5388 20.4248 50.6375 20.6816 50.6375 20.9961C50.6375 21.2539 50.5632 21.4844 50.4148 21.6875C50.2683 21.8906 50.0632 22.0508 49.7996 22.168C49.5359 22.2852 49.2292 22.3438 48.8796 22.3438C48.4207 22.3438 48.0408 22.2441 47.74 22.0449C47.4392 21.8457 47.2488 21.5547 47.1687 21.1719L47.825 21.0078C47.8875 21.25 48.0056 21.4316 48.1794 21.5527C48.3552 21.6738 48.5847 21.7344 48.8679 21.7344C49.1902 21.7344 49.446 21.666 49.6355 21.5293C49.8269 21.3906 49.9226 21.2246 49.9226 21.0312C49.9226 20.875 49.8679 20.7441 49.7585 20.6387C49.6492 20.5312 49.4812 20.4512 49.2546 20.3984L48.5046 20.2227C48.0925 20.125 47.7898 19.9736 47.5964 19.7686C47.405 19.5615 47.3093 19.3027 47.3093 18.9922C47.3093 18.7383 47.3806 18.5137 47.5232 18.3184C47.6677 18.123 47.864 17.9697 48.1121 17.8584C48.3621 17.7471 48.6453 17.6914 48.9617 17.6914C49.407 17.6914 49.7566 17.7891 50.0105 17.9844C50.2664 18.1797 50.448 18.4375 50.5554 18.7578Z" fill="black" fill-opacity="0.45"></path> <g style="mix-blend-mode:multiply" opacity="0.33"> <path d="M34.6957 114.824L18.3745 131.698C16.21 133.936 15 136.927 15 140.041V165C15 171.627 20.3726 177 27 177H202.5C209.127 177 214.5 171.627 214.5 165V102.169C214.5 98.9429 212.499 96.7777 210.71 99.4622C206.289 106.098 200.576 122.501 198.375 119.932C194.714 115.658 188.246 120.036 183.539 119.932C178.832 119.828 176.74 115.866 176.949 109.612C177.158 103.357 176.008 103.565 172.661 101.063C169.983 99.0617 165.339 102.87 163.351 105.025C156.483 111.905 141.804 126.625 138.039 130.461C134.273 134.297 130.473 132.06 129.043 130.461C123.186 124.797 110.236 112.239 105.299 107.318C100.362 102.397 95.7809 105.268 94.1073 107.318C92.2943 109.055 88.1034 112.989 85.8441 114.824C83.0199 117.117 76.1164 115.554 72.2463 114.824C68.3761 114.094 66.598 113.469 62.3094 117.534C58.0209 121.6 55.1445 121.965 47.9795 114.824C42.2475 109.111 36.7353 112.444 34.6957 114.824Z" fill="url(#paint0_linear_270_682)"></path> </g> <path d="M15.8715 135.187L35.3952 114.824C37.417 112.443 42.8811 109.111 48.563 114.824C55.6655 121.965 58.5168 121.6 62.7679 117.534C67.019 113.468 68.7816 114.094 72.618 114.824C76.4543 115.553 83.2976 117.117 86.0971 114.824C88.3367 112.989 92.491 109.055 94.2882 107.318C95.9472 105.268 100.489 102.397 105.383 107.318C110.276 112.238 123.113 124.797 128.919 130.461C130.336 132.059 134.103 134.297 137.836 130.461C141.569 126.625 156.119 111.905 162.928 105.024C164.898 102.87 169.501 99.0615 172.156 101.063C175.474 103.565 176.614 103.357 176.407 109.611C176.2 115.866 178.273 119.828 182.939 119.932C187.605 120.036 194.344 115.055 197.973 119.33C200.877 122.749 209.621 95.5266 213.63 99.488" stroke="#1670F8" stroke-width="1.8" stroke-linecap="round" stroke-linejoin="round"></path> <defs> <linearGradient id="paint0_linear_270_682" x1="114.75" y1="134.413" x2="114.75" y2="177" gradientUnits="userSpaceOnUse"> <stop stop-color="#1670F8" stop-opacity="0.8"></stop> <stop offset="0.46679" stop-color="#1670F8" stop-opacity="0.5"></stop> <stop offset="1" stop-color="#1670F8" stop-opacity="0"></stop> </linearGradient> </defs> </svg> 