<?xml version="1.0" encoding="UTF-8"?> <svg xmlns="http://www.w3.org/2000/svg" width="51" height="19" viewBox="0 0 51 19" fill="none"> <path d="M7.31942 0.818181V15H4.32102V3.66424H4.23793L0.990234 5.70011V3.04102L4.50107 0.818181H7.31942ZM13.1622 13.0611L13.086 13.8228C13.026 14.4322 12.9106 15.0392 12.7397 15.644C12.5736 16.2534 12.3981 16.805 12.2135 17.299C12.0334 17.793 11.888 18.1808 11.7772 18.4624H9.86599C9.93524 18.19 10.0299 17.8091 10.1499 17.3198C10.2699 16.835 10.383 16.2903 10.4892 15.6855C10.5954 15.0808 10.6623 14.4645 10.69 13.8366L10.7247 13.0611H13.1622ZM15.8593 15L21.7384 3.36648V3.26953H14.8899V0.818181H24.8407V3.30415L18.9547 15H15.8593ZM31.8849 15.1939C30.9062 15.1939 30.0336 15.0138 29.2673 14.6538C28.5056 14.2937 27.9008 13.7974 27.453 13.165C27.0052 12.5325 26.7721 11.8077 26.7536 10.9906H29.662C29.6943 11.54 29.9252 11.9854 30.3545 12.3271C30.7838 12.6687 31.2939 12.8395 31.8849 12.8395C32.3557 12.8395 32.7712 12.7356 33.1313 12.5279C33.496 12.3155 33.7799 12.0224 33.983 11.6484C34.1908 11.2699 34.2947 10.8359 34.2947 10.3466C34.2947 9.84801 34.1885 9.40945 33.9761 9.03089C33.7684 8.65234 33.4798 8.35689 33.1105 8.14453C32.7412 7.93217 32.3188 7.82369 31.8433 7.81907C31.4278 7.81907 31.0239 7.90447 30.6315 8.07528C30.2437 8.24609 29.9413 8.47923 29.7243 8.77468L27.0583 8.29688L27.73 0.818181H36.3998V3.26953H30.2021L29.8351 6.82191H29.9182C30.1675 6.47106 30.5438 6.18022 31.047 5.9494C31.5502 5.71857 32.1134 5.60316 32.7366 5.60316C33.5906 5.60316 34.3524 5.80398 35.0218 6.20561C35.6911 6.60724 36.2197 7.15891 36.6075 7.86062C36.9953 8.55771 37.1869 9.36097 37.1823 10.2704C37.1869 11.226 36.9653 12.0755 36.5175 12.8187C36.0743 13.5574 35.4534 14.139 34.6547 14.5637C33.8607 14.9838 32.9374 15.1939 31.8849 15.1939ZM44.7164 15.1939C43.9869 15.1893 43.2829 15.0669 42.6043 14.8269C41.9303 14.5868 41.3256 14.1967 40.79 13.6566C40.2545 13.1165 39.8298 12.4009 39.5159 11.5099C39.2066 10.619 39.0519 9.52486 39.0519 8.22763C39.0566 7.03658 39.1927 5.97248 39.4605 5.03533C39.7329 4.09357 40.1206 3.29492 40.6238 2.63938C41.1317 1.98384 41.7387 1.48526 42.445 1.14364C43.1514 0.797407 43.9431 0.624289 44.8202 0.624289C45.7666 0.624289 46.6022 0.808949 47.327 1.17827C48.0518 1.54297 48.6334 2.03924 49.072 2.66708C49.5152 3.29492 49.7829 3.99893 49.8753 4.77912H46.9184C46.803 4.28516 46.5606 3.89737 46.1913 3.61577C45.822 3.33416 45.365 3.19336 44.8202 3.19336C43.8969 3.19336 43.1952 3.59499 42.7151 4.39826C42.2396 5.20153 41.9972 6.29332 41.988 7.67365H42.085C42.2973 7.25355 42.5835 6.89577 42.9436 6.60032C43.3083 6.30025 43.7215 6.07173 44.1831 5.91477C44.6494 5.7532 45.1411 5.67241 45.6581 5.67241C46.4983 5.67241 47.2462 5.87092 47.9017 6.26793C48.5573 6.66033 49.0743 7.20046 49.4529 7.88832C49.8314 8.57617 50.0207 9.36328 50.0207 10.2496C50.0207 11.2099 49.7968 12.0639 49.349 12.8118C48.9058 13.5597 48.2849 14.146 47.4862 14.5707C46.6922 14.9908 45.7689 15.1985 44.7164 15.1939ZM44.7025 12.8395C45.1642 12.8395 45.5773 12.7287 45.942 12.5071C46.3067 12.2855 46.593 11.9854 46.8007 11.6069C47.0084 11.2283 47.1123 10.8036 47.1123 10.3327C47.1123 9.86186 47.0084 9.43945 46.8007 9.06552C46.5976 8.69158 46.316 8.39382 45.9559 8.17223C45.5958 7.95064 45.1849 7.83984 44.7233 7.83984C44.377 7.83984 44.0562 7.90447 43.7607 8.03374C43.4699 8.163 43.2137 8.34304 42.9921 8.57386C42.7751 8.80469 42.6043 9.07244 42.4797 9.37713C42.355 9.6772 42.2927 9.99805 42.2927 10.3397C42.2927 10.7967 42.3966 11.2145 42.6043 11.593C42.8167 11.9716 43.1029 12.274 43.463 12.5002C43.8277 12.7264 44.2409 12.8395 44.7025 12.8395Z" fill="black"></path> </svg> 