<?xml version="1.0" encoding="UTF-8"?> <svg xmlns="http://www.w3.org/2000/svg" width="41" height="17" viewBox="0 0 41 17" fill="none"> <rect width="41" height="16.5" rx="8.25" fill="#1670F8"></rect> <path d="M9.84925 5.29545H10.848L12.5845 9.53551H12.6484L14.3849 5.29545H15.3837V10.75H14.6007V6.80291H14.5501L12.9414 10.742H12.2915L10.6829 6.80025H10.6323V10.75H9.84925V5.29545ZM17.7068 10.8406C17.4476 10.8406 17.2132 10.7926 17.0037 10.6967C16.7942 10.5991 16.6282 10.4579 16.5056 10.2733C16.3849 10.0886 16.3245 9.86222 16.3245 9.59411C16.3245 9.36328 16.3689 9.1733 16.4577 9.02415C16.5465 8.875 16.6663 8.75692 16.8172 8.66992C16.9682 8.58292 17.1369 8.51722 17.3233 8.47283C17.5097 8.42844 17.6997 8.39471 17.8932 8.37163C18.1383 8.34322 18.3371 8.32013 18.4898 8.30238C18.6425 8.28285 18.7535 8.25178 18.8228 8.20916C18.892 8.16655 18.9266 8.0973 18.9266 8.00142V7.98278C18.9266 7.75018 18.8609 7.56996 18.7295 7.44212C18.5999 7.31428 18.4064 7.25035 18.1489 7.25035C17.8808 7.25035 17.6695 7.30984 17.515 7.4288C17.3623 7.54599 17.2567 7.67649 17.1981 7.82031L16.4497 7.64986C16.5385 7.40128 16.6681 7.20064 16.8386 7.04794C17.0108 6.89347 17.2088 6.7816 17.4325 6.71236C17.6562 6.64134 17.8915 6.60582 18.1383 6.60582C18.3016 6.60582 18.4747 6.62536 18.6576 6.66442C18.8423 6.7017 19.0145 6.77095 19.1743 6.87216C19.3359 6.97337 19.4682 7.11808 19.5712 7.30629C19.6741 7.49272 19.7256 7.73509 19.7256 8.03338V10.75H18.9479V10.1907H18.916C18.8645 10.2937 18.7872 10.3949 18.6843 10.4943C18.5813 10.5937 18.449 10.6763 18.2874 10.742C18.1258 10.8077 17.9323 10.8406 17.7068 10.8406ZM17.8799 10.2013C18.1001 10.2013 18.2883 10.1578 18.4446 10.0708C18.6026 9.98384 18.7224 9.87021 18.8041 9.72994C18.8876 9.58789 18.9293 9.43608 18.9293 9.2745V8.74716C18.9009 8.77557 18.8458 8.8022 18.7642 8.82706C18.6843 8.85014 18.5928 8.87056 18.4898 8.88832C18.3869 8.9043 18.2865 8.91939 18.1889 8.93359C18.0912 8.94602 18.0095 8.95668 17.9438 8.96555C17.7894 8.98509 17.6482 9.01793 17.5204 9.0641C17.3943 9.11026 17.2931 9.17685 17.2168 9.26385C17.1422 9.34908 17.1049 9.46271 17.1049 9.60476C17.1049 9.80185 17.1777 9.95099 17.3233 10.0522C17.4689 10.1516 17.6544 10.2013 17.8799 10.2013ZM20.7863 10.75V6.65909H21.556V7.30895H21.5986C21.6732 7.08878 21.8046 6.91566 21.9928 6.7896C22.1828 6.66175 22.3976 6.59783 22.6373 6.59783C22.6871 6.59783 22.7456 6.59961 22.8131 6.60316C22.8824 6.60671 22.9365 6.61115 22.9756 6.61648V7.3782C22.9436 7.36932 22.8868 7.35955 22.8051 7.3489C22.7235 7.33647 22.6418 7.33026 22.5601 7.33026C22.3719 7.33026 22.2041 7.37021 22.0567 7.45011C21.9111 7.52823 21.7957 7.63743 21.7105 7.7777C21.6253 7.91619 21.5827 8.07422 21.5827 8.25178V10.75H20.7863ZM25.2414 10.8326C24.8455 10.8326 24.5046 10.7429 24.2187 10.5636C23.9346 10.3825 23.7162 10.133 23.5635 9.81516C23.4108 9.49734 23.3345 9.13335 23.3345 8.72319C23.3345 8.30771 23.4126 7.94105 23.5688 7.62322C23.7251 7.30362 23.9453 7.05415 24.2294 6.87482C24.5134 6.69549 24.8481 6.60582 25.2334 6.60582C25.5442 6.60582 25.8212 6.66353 26.0644 6.77894C26.3077 6.89258 26.5039 7.05238 26.653 7.25835C26.8039 7.46431 26.8936 7.7049 26.922 7.98011H26.147C26.1044 7.78835 26.0067 7.62322 25.854 7.48473C25.7031 7.34624 25.5007 7.27699 25.2468 7.27699C25.0248 7.27699 24.8304 7.33558 24.6635 7.45277C24.4984 7.56818 24.3696 7.73331 24.2773 7.94815C24.185 8.16122 24.1388 8.41335 24.1388 8.70455C24.1388 9.00284 24.1841 9.2603 24.2746 9.47692C24.3652 9.69354 24.493 9.86133 24.6582 9.98029C24.8251 10.0993 25.0213 10.1587 25.2468 10.1587C25.3977 10.1587 25.5344 10.1312 25.6569 10.0762C25.7812 10.0194 25.8851 9.93857 25.9685 9.83381C26.0538 9.72905 26.1132 9.60298 26.147 9.45561H26.922C26.8936 9.72017 26.8075 9.95632 26.6637 10.1641C26.5198 10.3718 26.3272 10.5352 26.0857 10.6541C25.846 10.7731 25.5646 10.8326 25.2414 10.8326ZM28.57 8.32102V10.75H27.7736V5.29545H28.5593V7.32493H28.6099C28.7058 7.10476 28.8523 6.92986 29.0494 6.80025C29.2464 6.67063 29.5039 6.60582 29.8217 6.60582C30.1023 6.60582 30.3473 6.66353 30.5568 6.77894C30.7681 6.89435 30.9315 7.06658 31.0469 7.29563C31.1641 7.5229 31.2227 7.807 31.2227 8.1479V10.75H30.4263V8.24379C30.4263 7.94371 30.3491 7.71111 30.1946 7.54599C30.0401 7.37908 29.8253 7.29563 29.5501 7.29563C29.3619 7.29563 29.1932 7.33558 29.044 7.41548C28.8967 7.49538 28.7804 7.61257 28.6951 7.76705C28.6117 7.91974 28.57 8.1044 28.57 8.32102Z" fill="white"></path> </svg> 