<?xml version="1.0" encoding="UTF-8"?> <svg xmlns="http://www.w3.org/2000/svg" width="1803" height="679" viewBox="0 0 1803 679" fill="none"> <path d="M1770.5 646.667C1746.16 627.272 1682.56 581.523 1622.93 553.679C1548.4 518.873 1429.84 457.769 1342.8 508.679C1255.76 559.588 1076.68 576.731 1035.66 535.172C994.641 493.614 1221.5 424.667 1221.5 372.054C1221.5 311.883 1043.03 339.225 973 337.667C902.968 336.108 880 323.823 880 283.167C880 235.374 1055.05 134.697 941 52.1666C860.5 -6.08553 731.283 80.6665 684.5 137.667C641 190.667 627.421 217.167 612 300.167C595 391.667 556.5 558.167 343.5 469.667C190.81 406.225 72.5 401.167 32 451.167" stroke="#EFEFEF" stroke-width="64" stroke-linecap="round"></path> </svg> 