<?xml version="1.0" encoding="UTF-8"?> <svg xmlns="http://www.w3.org/2000/svg" width="1347" height="865" viewBox="0 0 1347 865" fill="none"> <path d="M1314.23 785.407C1307.57 768.422 1279.59 737.792 1244.62 726.793C1120.19 687.654 1092.43 803.724 1021.82 827.702C951.221 851.681 897.468 787.026 949.888 702.814C1021.82 587.251 924.245 560.275 843.983 571.265C777.251 580.403 638.834 592.004 638.834 456.035C638.834 345.468 697.549 289.645 741.409 231.57C789.699 167.627 781.884 71.383 680.463 37.7433C613.19 15.4298 499.958 72.3789 453 121.002C417.833 157.419 389.5 212.754 351 304.254C317.202 384.578 260.5 456.035 182 456.035C84.4096 456.035 32 287.754 32 239.754" stroke="#131313" stroke-width="64" stroke-linecap="round"></path> </svg> 