<?xml version="1.0" encoding="UTF-8"?> <svg xmlns="http://www.w3.org/2000/svg" width="90" height="128" viewBox="0 0 90 128" fill="none"> <path d="M84.7904 4H70C61.1635 4 54 11.1634 54 20V108C54 116.837 61.1634 124 70 124H84.7904" stroke="black" stroke-width="1.5" stroke-linecap="round"></path> <path d="M54 64L5.98254 64" stroke="black" stroke-width="1.5" stroke-linecap="round"></path> <path d="M85.5475 3.28035L80.5157 0.152562C79.9129 -0.222171 79.1357 0.133851 79.0158 0.780589C78.9947 0.894278 79.0201 1.01018 79.0593 1.11895L80.0979 4.00003L79.0593 6.88111C79.0201 6.98989 78.9947 7.10578 79.0158 7.21947C79.1342 7.85706 79.8925 8.21483 80.4954 7.85977L85.5272 4.89661C86.1487 4.53065 86.1596 3.66082 85.5475 3.28035Z" fill="black"></path> <path d="M85.5475 123.28L80.5157 120.153C79.9129 119.778 79.1357 120.134 79.0158 120.781C78.9947 120.894 79.0201 121.01 79.0593 121.119L80.0979 124L79.0593 126.881C79.0201 126.99 78.9947 127.106 79.0158 127.219C79.1342 127.857 79.8925 128.215 80.4954 127.86L85.5272 124.897C86.1487 124.531 86.1596 123.661 85.5475 123.28Z" fill="black"></path> <path d="M1.5 64C1.5 62.6193 2.61929 61.5 4 61.5C5.38071 61.5 6.5 62.6193 6.5 64C6.5 65.3807 5.38071 66.5 4 66.5C2.61929 66.5 1.5 65.3807 1.5 64Z" fill="white" stroke="black" stroke-width="3"></path> </svg> 