<?xml version="1.0" encoding="UTF-8"?> <svg xmlns="http://www.w3.org/2000/svg" width="63" height="42" viewBox="0 0 63 42" fill="none"> <path d="M20.6 41.6C7.64 41.6 0.5 33.44 0.5 20.9C0.5 8.42 7.64 0.2 20.6 0.2C33.5 0.2 40.7 8.42 40.7 20.9C40.7 33.44 33.5 41.6 20.6 41.6ZM20.6 32.84C28.22 32.84 31.04 29.54 31.04 20.9C31.04 12.26 28.22 8.96 20.6 8.96C12.92 8.96 10.16 12.26 10.16 20.9C10.16 29.54 12.92 32.84 20.6 32.84ZM62.375 41H53.375V11.96H43.055V5.78H44.735C49.175 5.78 52.175 4.76 54.155 0.799999H62.375V41Z" fill="#FFB800"></path> </svg> 