<?xml version="1.0" encoding="UTF-8"?> <svg xmlns="http://www.w3.org/2000/svg" width="201" height="42" viewBox="0 0 201 42" fill="none"> <rect width="200.25" height="42" rx="13.5" fill="#1670F8"></rect> <path d="M10.1455 17.5V8.51648H11.2661V17.5H10.1455ZM15.4986 17.5498C14.1165 17.5498 13.5375 17.0393 13.5375 15.7568V11.6853H12.4792V10.7888H13.5375V9.05188H14.6581V10.7888H16.1273V11.6853H14.6581V15.4829C14.6581 16.2736 14.932 16.5911 15.6293 16.5911C15.8223 16.5911 15.9281 16.5848 16.1273 16.5662V17.4875C15.9157 17.5249 15.7102 17.5498 15.4986 17.5498ZM17.8758 12.0588L17.7451 8.51648H18.903L18.7723 12.0588H17.8758ZM23.2226 17.6183C21.7285 17.6183 20.7013 16.8961 20.5768 15.788H21.6849C21.8654 16.3483 22.4008 16.7156 23.26 16.7156C24.1627 16.7156 24.8039 16.286 24.8039 15.6759V15.6635C24.8039 15.209 24.4615 14.8915 23.6335 14.6923L22.5938 14.4432C21.3363 14.1444 20.7697 13.5966 20.7697 12.6316V12.6254C20.7697 11.511 21.8405 10.6705 23.2662 10.6705C24.6732 10.6705 25.6506 11.374 25.8 12.4697H24.7354C24.5923 11.9406 24.0693 11.5732 23.26 11.5732C22.4631 11.5732 21.8779 11.9841 21.8779 12.5756V12.588C21.8779 13.0425 22.2141 13.3289 23.0047 13.5219L24.0382 13.7709C25.302 14.0759 25.9121 14.6238 25.9121 15.5825V15.595C25.9121 16.7903 24.7479 17.6183 23.2226 17.6183ZM33.3311 19.8657C31.7124 19.8657 30.679 19.1373 30.5109 18.0354L30.5233 18.0292H31.6439L31.6502 18.0354C31.7685 18.5459 32.3661 18.907 33.3311 18.907C34.5326 18.907 35.2486 18.3405 35.2486 17.3506V15.9934H35.149C34.7256 16.7343 33.9661 17.1514 33.0447 17.1514C31.3078 17.1514 30.2307 15.8066 30.2307 13.9265V13.9141C30.2307 12.0339 31.314 10.6705 33.0696 10.6705C34.0159 10.6705 34.7505 11.1375 35.1614 11.897H35.2361V10.7888H36.3194V17.4066C36.3194 18.907 35.1614 19.8657 33.3311 19.8657ZM33.2813 16.1926C34.5264 16.1926 35.2735 15.2588 35.2735 13.9265V13.9141C35.2735 12.5818 34.5202 11.6293 33.2813 11.6293C32.0362 11.6293 31.3389 12.5818 31.3389 13.9141V13.9265C31.3389 15.2588 32.0362 16.1926 33.2813 16.1926ZM40.7884 17.6183C38.8771 17.6183 37.6943 16.2985 37.6943 14.1506V14.1382C37.6943 11.9841 38.8771 10.6705 40.7884 10.6705C42.6996 10.6705 43.8825 11.9841 43.8825 14.1382V14.1506C43.8825 16.2985 42.6996 17.6183 40.7884 17.6183ZM40.7884 16.6595C42.0584 16.6595 42.7744 15.7319 42.7744 14.1506V14.1382C42.7744 12.5507 42.0584 11.6293 40.7884 11.6293C39.5184 11.6293 38.8024 12.5507 38.8024 14.1382V14.1506C38.8024 15.7319 39.5184 16.6595 40.7884 16.6595ZM48.0154 17.6183C46.1041 17.6183 44.9212 16.2985 44.9212 14.1506V14.1382C44.9212 11.9841 46.1041 10.6705 48.0154 10.6705C49.9266 10.6705 51.1095 11.9841 51.1095 14.1382V14.1506C51.1095 16.2985 49.9266 17.6183 48.0154 17.6183ZM48.0154 16.6595C49.2854 16.6595 50.0013 15.7319 50.0013 14.1506V14.1382C50.0013 12.5507 49.2854 11.6293 48.0154 11.6293C46.7453 11.6293 46.0294 12.5507 46.0294 14.1382V14.1506C46.0294 15.7319 46.7453 16.6595 48.0154 16.6595ZM54.9622 17.6183C53.2626 17.6183 52.1482 16.2424 52.1482 14.1506V14.1382C52.1482 12.0339 53.2563 10.6705 54.9622 10.6705C55.8835 10.6705 56.6866 11.1312 57.054 11.8472H57.1536V8.12427H58.2368V17.5H57.1536V16.4292H57.054C56.6431 17.1763 55.896 17.6183 54.9622 17.6183ZM55.2112 16.6595C56.4314 16.6595 57.1785 15.7008 57.1785 14.1506V14.1382C57.1785 12.588 56.4314 11.6293 55.2112 11.6293C53.9847 11.6293 53.2563 12.5756 53.2563 14.1382V14.1506C53.2563 15.7133 53.9847 16.6595 55.2112 16.6595ZM63.8629 19.8533C63.7197 19.8533 63.5329 19.8408 63.3835 19.8159V18.9257C63.5142 18.9506 63.6823 18.9568 63.8317 18.9568C64.4481 18.9568 64.8216 18.6766 65.0644 17.9047L65.1889 17.5062L62.7049 10.7888H63.8629L65.7056 16.3109H65.8052L67.6418 10.7888H68.7811L66.1601 17.9109C65.606 19.4175 65.0519 19.8533 63.8629 19.8533ZM72.4159 17.6183C70.5046 17.6183 69.3217 16.2985 69.3217 14.1506V14.1382C69.3217 11.9841 70.5046 10.6705 72.4159 10.6705C74.3271 10.6705 75.51 11.9841 75.51 14.1382V14.1506C75.51 16.2985 74.3271 17.6183 72.4159 17.6183ZM72.4159 16.6595C73.6859 16.6595 74.4018 15.7319 74.4018 14.1506V14.1382C74.4018 12.5507 73.6859 11.6293 72.4159 11.6293C71.1458 11.6293 70.4299 12.5507 70.4299 14.1382V14.1506C70.4299 15.7319 71.1458 16.6595 72.4159 16.6595ZM79.1323 17.6183C77.6071 17.6183 76.8226 16.7218 76.8226 15.1343V10.7888H77.9059V14.8728C77.9059 16.0806 78.3417 16.6595 79.4125 16.6595C80.5953 16.6595 81.2241 15.9374 81.2241 14.7607V10.7888H82.3074V17.5H81.2241V16.4977H81.1245C80.7946 17.2136 80.116 17.6183 79.1323 17.6183ZM88.5995 17.5L86.7194 10.7888H87.8027L89.1225 16.1553H89.2221L90.7225 10.7888H91.7497L93.2501 16.1553H93.3497L94.6695 10.7888H95.7465L93.8664 17.5H92.7769L91.2766 12.3079H91.1769L89.6828 17.5H88.5995ZM96.8724 17.5V10.7888H97.9557V11.7849H98.0553C98.3105 11.0814 98.9393 10.6705 99.8482 10.6705C100.054 10.6705 100.284 10.6954 100.39 10.7141V11.7662C100.166 11.7289 99.9603 11.704 99.7237 11.704C98.6903 11.704 97.9557 12.3577 97.9557 13.3413V17.5H96.8724ZM103.994 17.6183C102.082 17.6183 100.899 16.2985 100.899 14.1506V14.1382C100.899 11.9841 102.082 10.6705 103.994 10.6705C105.905 10.6705 107.088 11.9841 107.088 14.1382V14.1506C107.088 16.2985 105.905 17.6183 103.994 17.6183ZM103.994 16.6595C105.264 16.6595 105.979 15.7319 105.979 14.1506V14.1382C105.979 12.5507 105.264 11.6293 103.994 11.6293C102.724 11.6293 102.008 12.5507 102.008 14.1382V14.1506C102.008 15.7319 102.724 16.6595 103.994 16.6595ZM110.847 17.5498C109.465 17.5498 108.886 17.0393 108.886 15.7568V11.6853H107.828V10.7888H108.886V9.05188H110.006V10.7888H111.476V11.6853H110.006V15.4829C110.006 16.2736 110.28 16.5911 110.978 16.5911C111.171 16.5911 111.277 16.5848 111.476 16.5662V17.4875C111.264 17.5249 111.059 17.5498 110.847 17.5498ZM115.428 17.6183C113.511 17.6183 112.353 16.2736 112.353 14.1693V14.1631C112.353 12.09 113.535 10.6705 115.36 10.6705C117.184 10.6705 118.292 12.0277 118.292 14.0323V14.4557H113.461C113.492 15.844 114.258 16.6533 115.453 16.6533C116.362 16.6533 116.922 16.2238 117.103 15.8191L117.128 15.7631H118.211L118.198 15.8129C117.968 16.7218 117.009 17.6183 115.428 17.6183ZM115.353 11.6355C114.357 11.6355 113.598 12.3141 113.479 13.5903H117.19C117.078 12.2643 116.343 11.6355 115.353 11.6355ZM125.194 17.6183C123.669 17.6183 122.884 16.7218 122.884 15.1343V10.7888H123.968V14.8728C123.968 16.0806 124.403 16.6595 125.474 16.6595C126.657 16.6595 127.286 15.9374 127.286 14.7607V10.7888H128.369V17.5H127.286V16.4977H127.186C126.856 17.2136 126.178 17.6183 125.194 17.6183ZM132.39 17.6183C130.896 17.6183 129.869 16.8961 129.744 15.788H130.852C131.033 16.3483 131.568 16.7156 132.427 16.7156C133.33 16.7156 133.971 16.286 133.971 15.6759V15.6635C133.971 15.209 133.629 14.8915 132.801 14.6923L131.761 14.4432C130.504 14.1444 129.937 13.5966 129.937 12.6316V12.6254C129.937 11.511 131.008 10.6705 132.433 10.6705C133.84 10.6705 134.818 11.374 134.967 12.4697H133.903C133.76 11.9406 133.237 11.5732 132.427 11.5732C131.63 11.5732 131.045 11.9841 131.045 12.5756V12.588C131.045 13.0425 131.381 13.3289 132.172 13.5219L133.205 13.7709C134.469 14.0759 135.079 14.6238 135.079 15.5825V15.595C135.079 16.7903 133.915 17.6183 132.39 17.6183ZM136.909 14.5117L136.803 8.51025H138.048L137.942 14.5117H136.909ZM137.432 17.6121C136.927 17.6121 136.566 17.251 136.566 16.7467C136.566 16.2362 136.927 15.8751 137.432 15.8751C137.936 15.8751 138.291 16.2362 138.291 16.7467C138.291 17.251 137.936 17.6121 137.432 17.6121ZM145.399 17.5L142.952 8.51648H144.122L145.909 15.8191H145.984L147.995 8.51648H149.128L151.139 15.8191H151.213L153 8.51648H154.17L151.724 17.5H150.665L148.599 10.4091H148.524L146.457 17.5H145.399ZM157.55 17.6183C155.632 17.6183 154.475 16.2736 154.475 14.1693V14.1631C154.475 12.09 155.657 10.6705 157.481 10.6705C159.306 10.6705 160.414 12.0277 160.414 14.0323V14.4557H155.583C155.614 15.844 156.38 16.6533 157.575 16.6533C158.484 16.6533 159.044 16.2238 159.225 15.8191L159.25 15.7631H160.333L160.32 15.8129C160.09 16.7218 159.131 17.6183 157.55 17.6183ZM157.475 11.6355C156.479 11.6355 155.72 12.3141 155.601 13.5903H159.312C159.2 12.2643 158.465 11.6355 157.475 11.6355ZM162.224 12.0588L162.094 8.51648H163.252L163.121 12.0588H162.224ZM165.268 17.5V10.7888H166.351V11.7849H166.451C166.706 11.0814 167.335 10.6705 168.244 10.6705C168.449 10.6705 168.679 10.6954 168.785 10.7141V11.7662C168.561 11.7289 168.356 11.704 168.119 11.704C167.086 11.704 166.351 12.3577 166.351 13.3413V17.5H165.268ZM172.37 17.6183C170.453 17.6183 169.295 16.2736 169.295 14.1693V14.1631C169.295 12.09 170.478 10.6705 172.302 10.6705C174.126 10.6705 175.234 12.0277 175.234 14.0323V14.4557H170.403C170.434 15.844 171.2 16.6533 172.395 16.6533C173.304 16.6533 173.864 16.2238 174.045 15.8191L174.07 15.7631H175.153L175.141 15.8129C174.91 16.7218 173.952 17.6183 172.37 17.6183ZM172.296 11.6355C171.299 11.6355 170.54 12.3141 170.422 13.5903H174.132C174.02 12.2643 173.285 11.6355 172.296 11.6355ZM12.312 33.6183C10.8179 33.6183 9.79065 32.8961 9.66614 31.788H10.7743C10.9548 32.3483 11.4902 32.7156 12.3494 32.7156C13.2521 32.7156 13.8933 32.286 13.8933 31.6759V31.6635C13.8933 31.209 13.5509 30.8915 12.7229 30.6923L11.6832 30.4432C10.4257 30.1444 9.85913 29.5966 9.85913 28.6316V28.6254C9.85913 27.511 10.9299 26.6705 12.3556 26.6705C13.7626 26.6705 14.74 27.374 14.8894 28.4697H13.8248C13.6816 27.9406 13.1587 27.5732 12.3494 27.5732C11.5525 27.5732 10.9673 27.9841 10.9673 28.5756V28.588C10.9673 29.0425 11.3035 29.3289 12.0941 29.5219L13.1276 29.7709C14.3914 30.0759 15.0015 30.6238 15.0015 31.5825V31.595C15.0015 32.7903 13.8373 33.6183 12.312 33.6183ZM19.1343 33.6183C17.2231 33.6183 16.0402 32.2985 16.0402 30.1506V30.1382C16.0402 27.9841 17.2231 26.6705 19.1343 26.6705C21.0456 26.6705 22.2284 27.9841 22.2284 30.1382V30.1506C22.2284 32.2985 21.0456 33.6183 19.1343 33.6183ZM19.1343 32.6595C20.4043 32.6595 21.1203 31.7319 21.1203 30.1506V30.1382C21.1203 28.5507 20.4043 27.6293 19.1343 27.6293C17.8643 27.6293 17.1483 28.5507 17.1483 30.1382V30.1506C17.1483 31.7319 17.8643 32.6595 19.1343 32.6595ZM23.6033 33.5V26.7888H24.6866V27.7849H24.7862C25.0414 27.0814 25.6702 26.6705 26.5792 26.6705C26.7846 26.6705 27.015 26.6954 27.1208 26.7141V27.7662C26.8967 27.7289 26.6912 27.704 26.4547 27.704C25.4212 27.704 24.6866 28.3577 24.6866 29.3413V33.5H23.6033ZM28.2778 33.5V26.7888H29.3611V27.7849H29.4607C29.7159 27.0814 30.3447 26.6705 31.2536 26.6705C31.4591 26.6705 31.6894 26.6954 31.7953 26.7141V27.7662C31.5711 27.7289 31.3657 27.704 31.1291 27.704C30.0957 27.704 29.3611 28.3577 29.3611 29.3413V33.5H28.2778ZM33.4005 35.8533C33.2573 35.8533 33.0706 35.8408 32.9211 35.8159V34.9257C33.0519 34.9506 33.22 34.9568 33.3694 34.9568C33.9857 34.9568 34.3593 34.6766 34.6021 33.9047L34.7266 33.5062L32.2426 26.7888H33.4005L35.2433 32.3109H35.3429L37.1794 26.7888H38.3187L35.6978 33.9109C35.1437 35.4175 34.5896 35.8533 33.4005 35.8533ZM43.2973 35.8533C43.1541 35.8533 42.9673 35.8408 42.8179 35.8159V34.9257C42.9487 34.9506 43.1168 34.9568 43.2662 34.9568C43.8825 34.9568 44.256 34.6766 44.4988 33.9047L44.6234 33.5062L42.1393 26.7888H43.2973L45.1401 32.3109H45.2397L47.0762 26.7888H48.2155L45.5945 33.9109C45.0405 35.4175 44.4864 35.8533 43.2973 35.8533ZM51.8503 33.6183C49.9391 33.6183 48.7562 32.2985 48.7562 30.1506V30.1382C48.7562 27.9841 49.9391 26.6705 51.8503 26.6705C53.7616 26.6705 54.9444 27.9841 54.9444 30.1382V30.1506C54.9444 32.2985 53.7616 33.6183 51.8503 33.6183ZM51.8503 32.6595C53.1203 32.6595 53.8363 31.7319 53.8363 30.1506V30.1382C53.8363 28.5507 53.1203 27.6293 51.8503 27.6293C50.5803 27.6293 49.8643 28.5507 49.8643 30.1382V30.1506C49.8643 31.7319 50.5803 32.6595 51.8503 32.6595ZM58.5668 33.6183C57.0415 33.6183 56.2571 32.7218 56.2571 31.1343V26.7888H57.3403V30.8728C57.3403 32.0806 57.7761 32.6595 58.8469 32.6595C60.0298 32.6595 60.6586 31.9374 60.6586 30.7607V26.7888H61.7418V33.5H60.6586V32.4977H60.559C60.229 33.2136 59.5504 33.6183 58.5668 33.6183ZM66.8013 33.5V24.1243H67.8846V27.7974H67.9842C68.3204 27.0876 68.9492 26.6705 69.939 26.6705C71.4456 26.6705 72.2861 27.5608 72.2861 29.1545V33.5H71.2028V29.416C71.2028 28.2083 70.7048 27.6293 69.634 27.6293C68.5632 27.6293 67.8846 28.3514 67.8846 29.5281V33.5H66.8013ZM75.7839 33.6183C74.5077 33.6183 73.5427 32.8463 73.5427 31.6261V31.6136C73.5427 30.4183 74.4267 29.7273 75.9893 29.6339L77.9131 29.5156V28.9055C77.9131 28.0775 77.4088 27.6293 76.4065 27.6293C75.6034 27.6293 75.0742 27.9281 74.8999 28.451L74.8936 28.4697H73.8104L73.8166 28.4324C73.9909 27.3802 75.0119 26.6705 76.4438 26.6705C78.0811 26.6705 78.9963 27.511 78.9963 28.9055V33.5H77.9131V32.5101H77.8134C77.3901 33.2261 76.6866 33.6183 75.7839 33.6183ZM74.6508 31.6012C74.6508 32.2798 75.2298 32.6782 76.008 32.6782C77.11 32.6782 77.9131 31.9561 77.9131 30.9973V30.3872L76.1201 30.4993C75.0991 30.5615 74.6508 30.9226 74.6508 31.5887V31.6012ZM82.3198 33.5L79.8358 26.7888H80.9813L82.8179 32.3171H82.9175L84.754 26.7888H85.8995L83.4155 33.5H82.3198ZM89.5157 33.6183C87.5982 33.6183 86.4402 32.2736 86.4402 30.1693V30.1631C86.4402 28.09 87.6231 26.6705 89.4472 26.6705C91.2713 26.6705 92.3794 28.0277 92.3794 30.0323V30.4557H87.5484C87.5795 31.844 88.3452 32.6533 89.5406 32.6533C90.4495 32.6533 91.0098 32.2238 91.1903 31.8191L91.2152 31.7631H92.2985L92.286 31.8129C92.0557 32.7218 91.097 33.6183 89.5157 33.6183ZM89.4409 27.6355C88.4449 27.6355 87.6853 28.3141 87.567 29.5903H91.2775C91.1654 28.2643 90.4308 27.6355 89.4409 27.6355ZM98.877 33.6183C97.6008 33.6183 96.6358 32.8463 96.6358 31.6261V31.6136C96.6358 30.4183 97.5199 29.7273 99.0825 29.6339L101.006 29.5156V28.9055C101.006 28.0775 100.502 27.6293 99.4996 27.6293C98.6965 27.6293 98.1673 27.9281 97.993 28.451L97.9868 28.4697H96.9035L96.9098 28.4324C97.0841 27.3802 98.1051 26.6705 99.537 26.6705C101.174 26.6705 102.089 27.511 102.089 28.9055V33.5H101.006V32.5101H100.907C100.483 33.2261 99.7798 33.6183 98.877 33.6183ZM97.744 31.6012C97.744 32.2798 98.323 32.6782 99.1012 32.6782C100.203 32.6782 101.006 31.9561 101.006 30.9973V30.3872L99.2132 30.4993C98.1922 30.5615 97.744 30.9226 97.744 31.5887V31.6012ZM107.043 35.7412V26.7888H108.126V27.8596H108.226C108.637 27.1125 109.384 26.6705 110.318 26.6705C112.017 26.6705 113.132 28.0464 113.132 30.1382V30.1506C113.132 32.2549 112.024 33.6183 110.318 33.6183C109.396 33.6183 108.593 33.1576 108.226 32.4417H108.126V35.7412H107.043ZM110.069 32.6595C111.295 32.6595 112.024 31.7133 112.024 30.1506V30.1382C112.024 28.5756 111.295 27.6293 110.069 27.6293C108.849 27.6293 108.101 28.588 108.101 30.1382V30.1506C108.101 31.7008 108.849 32.6595 110.069 32.6595ZM114.519 33.5V26.7888H115.602V27.7849H115.702C115.957 27.0814 116.586 26.6705 117.495 26.6705C117.7 26.6705 117.931 26.6954 118.037 26.7141V27.7662C117.812 27.7289 117.607 27.704 117.37 27.704C116.337 27.704 115.602 28.3577 115.602 29.3413V33.5H114.519ZM121.64 33.6183C119.729 33.6183 118.546 32.2985 118.546 30.1506V30.1382C118.546 27.9841 119.729 26.6705 121.64 26.6705C123.551 26.6705 124.734 27.9841 124.734 30.1382V30.1506C124.734 32.2985 123.551 33.6183 121.64 33.6183ZM121.64 32.6595C122.91 32.6595 123.626 31.7319 123.626 30.1506V30.1382C123.626 28.5507 122.91 27.6293 121.64 27.6293C120.37 27.6293 119.654 28.5507 119.654 30.1382V30.1506C119.654 31.7319 120.37 32.6595 121.64 32.6595ZM129.446 33.6183C128.512 33.6183 127.765 33.1763 127.354 32.4292H127.255V33.5H126.172V24.1243H127.255V27.8472H127.354C127.722 27.1312 128.525 26.6705 129.446 26.6705C131.152 26.6705 132.26 28.0339 132.26 30.1382V30.1506C132.26 32.2424 131.146 33.6183 129.446 33.6183ZM129.197 32.6595C130.424 32.6595 131.152 31.7133 131.152 30.1506V30.1382C131.152 28.5756 130.424 27.6293 129.197 27.6293C127.977 27.6293 127.23 28.588 127.23 30.1382V30.1506C127.23 31.7008 127.977 32.6595 129.197 32.6595ZM133.697 33.5V24.1243H134.781V33.5H133.697ZM139.293 33.6183C137.376 33.6183 136.218 32.2736 136.218 30.1693V30.1631C136.218 28.09 137.401 26.6705 139.225 26.6705C141.049 26.6705 142.157 28.0277 142.157 30.0323V30.4557H137.326C137.357 31.844 138.123 32.6533 139.318 32.6533C140.227 32.6533 140.787 32.2238 140.968 31.8191L140.993 31.7631H142.076L142.064 31.8129C141.833 32.7218 140.874 33.6183 139.293 33.6183ZM139.218 27.6355C138.222 27.6355 137.463 28.3141 137.345 29.5903H141.055C140.943 28.2643 140.208 27.6355 139.218 27.6355ZM143.532 33.5V26.7888H144.615V27.8098H144.715C145.014 27.0876 145.649 26.6705 146.526 26.6705C147.435 26.6705 148.07 27.1499 148.382 27.8472H148.481C148.842 27.1375 149.608 26.6705 150.536 26.6705C151.905 26.6705 152.671 27.455 152.671 28.8619V33.5H151.588V29.111C151.588 28.1211 151.133 27.6293 150.187 27.6293C149.253 27.6293 148.637 28.3328 148.637 29.1857V33.5H147.554V28.9429C147.554 28.146 147.006 27.6293 146.159 27.6293C145.281 27.6293 144.615 28.395 144.615 29.3413V33.5H143.532ZM155.204 33.5623C154.762 33.5623 154.395 33.1949 154.395 32.7529C154.395 32.3047 154.762 31.9436 155.204 31.9436C155.652 31.9436 156.013 32.3047 156.013 32.7529C156.013 33.1949 155.652 33.5623 155.204 33.5623Z" fill="white"></path> </svg> 