<?xml version="1.0" encoding="UTF-8"?> <svg xmlns="http://www.w3.org/2000/svg" width="88" height="45" viewBox="0 0 88 45" fill="none"> <path d="M22.04 44.64C8.216 44.64 0.6 35.936 0.6 22.56C0.6 9.248 8.216 0.48 22.04 0.48C35.8 0.48 43.48 9.248 43.48 22.56C43.48 35.936 35.8 44.64 22.04 44.64ZM22.04 35.296C30.168 35.296 33.176 31.776 33.176 22.56C33.176 13.344 30.168 9.824 22.04 9.824C13.848 9.824 10.904 13.344 10.904 22.56C10.904 31.776 13.848 35.296 22.04 35.296ZM67.304 44.64C53.288 44.64 46.952 38.944 46.952 29.472V28.448H57.128V29.472C57.128 33.824 58.344 35.424 66.856 35.424C74.92 35.424 77.416 34.144 77.416 30.432C77.416 27.232 75.368 25.888 71.336 25.888H58.984V18.016H70.44C74.152 18.016 75.816 16.672 75.816 13.984C75.816 10.976 74.024 9.696 66.728 9.696C59.048 9.696 57.128 11.296 57.128 15.648V15.968H46.952V15.648C46.952 6.624 53.608 0.48 67.56 0.48C79.016 0.48 85.352 4.384 85.352 11.936C85.352 16.864 82.408 20.192 76.84 20.896V21.6C83.112 22.496 87.208 25.696 87.208 31.968C87.208 40.288 79.784 44.64 67.304 44.64Z" fill="#1670F8"></path> </svg> 