<?xml version="1.0" encoding="UTF-8"?> <svg xmlns="http://www.w3.org/2000/svg" width="19" height="8" viewBox="0 0 19 8" fill="none"> <path d="M6.19208 6V5.52273L7.66865 3.9929C7.82632 3.8267 7.95629 3.68111 8.05856 3.55611C8.16225 3.42969 8.23967 3.30966 8.2908 3.19602C8.34194 3.08239 8.36751 2.96165 8.36751 2.83381C8.36751 2.68892 8.33342 2.56392 8.26524 2.45881C8.19705 2.35227 8.10402 2.2706 7.98612 2.21378C7.86822 2.15554 7.73541 2.12642 7.58768 2.12642C7.43143 2.12642 7.29507 2.15838 7.17859 2.2223C7.06211 2.28622 6.97262 2.37642 6.91012 2.4929C6.84762 2.60937 6.81637 2.74574 6.81637 2.90199H6.18782C6.18782 2.63636 6.2489 2.40412 6.37106 2.20526C6.49322 2.00639 6.66083 1.85227 6.8739 1.7429C7.08697 1.6321 7.32916 1.5767 7.60046 1.5767C7.87461 1.5767 8.11609 1.63139 8.3249 1.74077C8.53512 1.84872 8.69919 1.99645 8.81708 2.18395C8.93498 2.37003 8.99393 2.58026 8.99393 2.81463C8.99393 2.97656 8.96339 3.13494 8.90231 3.28977C8.84265 3.4446 8.73825 3.61719 8.5891 3.80753C8.43995 3.99645 8.23257 4.22585 7.96694 4.49574L7.09975 5.40341V5.43537H9.06424V6H6.19208ZM11.3909 6.05966C11.0983 6.05966 10.837 6.00923 10.6069 5.90838C10.3782 5.80753 10.1971 5.66761 10.0635 5.48864C9.93143 5.30824 9.86041 5.09943 9.85046 4.86222H10.5195C10.528 4.99148 10.5713 5.10369 10.6495 5.19886C10.729 5.29261 10.8327 5.36506 10.9605 5.41619C11.0884 5.46733 11.2304 5.4929 11.3867 5.4929C11.5586 5.4929 11.7105 5.46307 11.8427 5.40341C11.9762 5.34375 12.0806 5.26065 12.1559 5.15412C12.2311 5.04616 12.2688 4.92188 12.2688 4.78125C12.2688 4.63494 12.2311 4.50639 12.1559 4.3956C12.082 4.28338 11.9733 4.19531 11.8299 4.13139C11.6878 4.06747 11.5159 4.03551 11.3142 4.03551H10.9456V3.49858H11.3142C11.4762 3.49858 11.6182 3.46946 11.7404 3.41122C11.864 3.35298 11.9605 3.27202 12.0302 3.16832C12.0998 3.06321 12.1346 2.94034 12.1346 2.79972C12.1346 2.66477 12.104 2.54759 12.0429 2.44815C11.9833 2.3473 11.898 2.26847 11.7873 2.21165C11.6779 2.15483 11.5486 2.12642 11.3995 2.12642C11.2574 2.12642 11.1246 2.1527 11.001 2.20526C10.8789 2.25639 10.7794 2.33026 10.7027 2.42685C10.626 2.52202 10.5848 2.63636 10.5792 2.76989H9.94208C9.94919 2.53409 10.0188 2.3267 10.1509 2.14773C10.2844 1.96875 10.4605 1.82884 10.6793 1.72798C10.898 1.62713 11.1409 1.5767 11.408 1.5767C11.6878 1.5767 11.9293 1.63139 12.1324 1.74077C12.337 1.84872 12.4946 1.9929 12.6054 2.1733C12.7177 2.35369 12.773 2.55114 12.7716 2.76562C12.773 3.00994 12.7049 3.21733 12.5671 3.38778C12.4307 3.55824 12.2489 3.67259 12.0216 3.73082V3.76491C12.3114 3.80895 12.5358 3.92401 12.6949 4.11009C12.8554 4.29616 12.935 4.52699 12.9336 4.80256C12.935 5.04261 12.8682 5.25781 12.7333 5.44815C12.5998 5.63849 12.4172 5.78835 12.1857 5.89773C11.9542 6.00568 11.6892 6.05966 11.3909 6.05966ZM16.0167 5.18182V4.9517C16.0167 4.78693 16.0507 4.63636 16.1189 4.5C16.1885 4.36222 16.2894 4.25213 16.4215 4.16974C16.555 4.08594 16.7162 4.04403 16.9052 4.04403C17.0983 4.04403 17.2603 4.08523 17.3909 4.16761C17.5216 4.25 17.6204 4.36009 17.6871 4.49787C17.7553 4.63565 17.7894 4.78693 17.7894 4.9517V5.18182C17.7894 5.34659 17.7553 5.49787 17.6871 5.63565C17.6189 5.77202 17.5188 5.8821 17.3867 5.96591C17.256 6.0483 17.0955 6.08949 16.9052 6.08949C16.7134 6.08949 16.5515 6.0483 16.4194 5.96591C16.2873 5.8821 16.1871 5.77202 16.1189 5.63565C16.0507 5.49787 16.0167 5.34659 16.0167 5.18182ZM16.5131 4.9517V5.18182C16.5131 5.30398 16.5422 5.41477 16.6005 5.5142C16.6587 5.61364 16.7603 5.66335 16.9052 5.66335C17.0486 5.66335 17.1488 5.61364 17.2056 5.5142C17.2624 5.41477 17.2908 5.30398 17.2908 5.18182V4.9517C17.2908 4.82955 17.2631 4.71875 17.2077 4.61932C17.1537 4.51989 17.0529 4.47017 16.9052 4.47017C16.7631 4.47017 16.6623 4.51989 16.6026 4.61932C16.5429 4.71875 16.5131 4.82955 16.5131 4.9517ZM13.8221 2.68466V2.45455C13.8221 2.28977 13.8561 2.13849 13.9243 2.00071C13.9939 1.86293 14.0948 1.75284 14.2269 1.67045C14.3604 1.58807 14.5216 1.54688 14.7105 1.54688C14.9037 1.54688 15.0657 1.58807 15.1963 1.67045C15.327 1.75284 15.4257 1.86293 15.4925 2.00071C15.5593 2.13849 15.5927 2.28977 15.5927 2.45455V2.68466C15.5927 2.84943 15.5586 3.00071 15.4904 3.13849C15.4236 3.27486 15.3242 3.38494 15.1921 3.46875C15.0614 3.55114 14.9009 3.59233 14.7105 3.59233C14.5174 3.59233 14.3547 3.55114 14.2226 3.46875C14.0919 3.38494 13.9925 3.27486 13.9243 3.13849C13.8561 3.00071 13.8221 2.84943 13.8221 2.68466ZM14.3206 2.45455V2.68466C14.3206 2.80682 14.349 2.91761 14.4059 3.01705C14.4641 3.11648 14.5657 3.16619 14.7105 3.16619C14.8526 3.16619 14.952 3.11648 15.0088 3.01705C15.0671 2.91761 15.0962 2.80682 15.0962 2.68466V2.45455C15.0962 2.33239 15.0685 2.22159 15.0131 2.12216C14.9577 2.02273 14.8569 1.97301 14.7105 1.97301C14.5685 1.97301 14.4677 2.02273 14.408 2.12216C14.3498 2.22159 14.3206 2.33239 14.3206 2.45455ZM14.0245 6L17.0245 1.63636H17.5337L14.5337 6H14.0245Z" fill="black"></path> <path d="M1.78648 2.19607C2.12301 1.71589 2.82243 1.71589 3.15896 2.19607L4.53648 4.16156C4.93587 4.73143 4.53675 5.52361 3.85024 5.52361H1.09521C0.408695 5.52361 0.00957499 4.73144 0.408967 4.16157L1.78648 2.19607Z" fill="#1670F8"></path> </svg> 