<?xml version="1.0" encoding="UTF-8"?> <svg xmlns="http://www.w3.org/2000/svg" width="108" height="61" viewBox="0 0 108 61" fill="none"> <path d="M19.008 48.54C7.488 48.54 1.728 44.616 1.728 36.768V36.282H10.098V36.768C10.098 38.352 10.764 39.486 12.096 40.17C13.428 40.818 15.768 41.142 19.116 41.142C22.176 41.142 24.282 40.746 25.434 39.954C26.622 39.126 27.216 37.722 27.216 35.742C27.216 33.726 26.64 32.322 25.488 31.53C24.336 30.702 22.23 30.288 19.17 30.288C16.614 30.288 14.634 30.468 13.23 30.828C11.862 31.188 10.854 31.836 10.206 32.772L9.612 32.718V32.772L1.998 32.556L4.05 11.82H33.858V19.11H11.232L10.098 28.56L10.584 28.614C11.34 27.354 12.744 26.256 14.796 25.32C16.848 24.348 19.404 23.862 22.464 23.862C26.856 23.862 30.168 24.888 32.4 26.94C34.668 28.956 35.802 31.854 35.802 35.634C35.802 39.666 34.398 42.834 31.59 45.138C28.782 47.406 24.588 48.54 19.008 48.54ZM55.9869 48.54C50.2269 48.54 45.7629 46.866 42.5949 43.518C39.4629 40.17 37.8969 35.634 37.8969 29.91C37.8969 24.186 39.4809 19.65 42.6489 16.302C45.8169 12.954 50.2629 11.28 55.9869 11.28C61.7109 11.28 66.1569 12.972 69.3249 16.356C72.4929 19.704 74.0769 24.222 74.0769 29.91C74.0769 35.634 72.4929 40.17 69.3249 43.518C66.1569 46.866 61.7109 48.54 55.9869 48.54ZM55.9869 40.656C59.4069 40.656 61.8189 39.846 63.2229 38.226C64.6629 36.57 65.3829 33.798 65.3829 29.91C65.3829 26.022 64.6629 23.268 63.2229 21.648C61.8189 19.992 59.4069 19.164 55.9869 19.164C52.5309 19.164 50.1009 19.992 48.6969 21.648C47.2929 23.268 46.5909 26.022 46.5909 29.91C46.5909 33.798 47.2929 36.57 48.6969 38.226C50.1009 39.846 52.5309 40.656 55.9869 40.656Z" fill="black"></path> <path d="M97.28 34.952H90.314V26.258H81.728V19.562H90.314V10.868H97.28V19.562H105.866V26.258H97.28V34.952Z" fill="#FFB800"></path> </svg> 