<?xml version="1.0" encoding="UTF-8"?> <svg xmlns="http://www.w3.org/2000/svg" width="88" height="45" viewBox="0 0 88 45" fill="none"> <path d="M22.04 44.64C8.216 44.64 0.6 35.936 0.6 22.56C0.6 9.248 8.216 0.48 22.04 0.48C35.8 0.48 43.48 9.248 43.48 22.56C43.48 35.936 35.8 44.64 22.04 44.64ZM22.04 35.296C30.168 35.296 33.176 31.776 33.176 22.56C33.176 13.344 30.168 9.824 22.04 9.824C13.848 9.824 10.904 13.344 10.904 22.56C10.904 31.776 13.848 35.296 22.04 35.296ZM67.88 44.64C54.44 44.64 47.4 40.096 47.4 30.688V30.112H57.32V30.688C57.32 34.336 59.88 35.872 68.008 35.872C75.368 35.872 77.608 34.144 77.608 29.472C77.608 24.736 75.368 23.008 68.072 23.008C62.184 23.008 58.984 23.712 57.448 25.952L56.744 25.888V25.952L47.72 25.696L50.152 1.12H85.48V9.76H58.664L57.32 20.96L57.896 21.024C59.432 18.528 63.976 15.392 71.976 15.392C82.536 15.392 87.784 20.512 87.784 29.344C87.784 38.624 81.512 44.64 67.88 44.64Z" fill="#1670F8"></path> </svg> 