<?xml version="1.0" encoding="UTF-8"?> <svg xmlns="http://www.w3.org/2000/svg" width="89" height="45" viewBox="0 0 89 45" fill="none"> <path d="M22.04 44.64C8.216 44.64 0.6 35.936 0.6 22.56C0.6 9.248 8.216 0.48 22.04 0.48C35.8 0.48 43.48 9.248 43.48 22.56C43.48 35.936 35.8 44.64 22.04 44.64ZM22.04 35.296C30.168 35.296 33.176 31.776 33.176 22.56C33.176 13.344 30.168 9.824 22.04 9.824C13.848 9.824 10.904 13.344 10.904 22.56C10.904 31.776 13.848 35.296 22.04 35.296ZM69.032 44.64C53.416 44.64 47.016 37.792 47.016 22.624C47.016 7.712 55.4 0.48 68.2 0.48C79.912 0.48 87.464 6.112 87.464 14.88V15.392H76.776V14.88C76.776 11.168 74.344 9.696 68.2 9.696C60.328 9.696 57.256 12.192 57.256 20.96V23.776H57.96C59.752 20.32 64.36 17.504 72.04 17.504C82.6 17.504 88.488 21.792 88.488 30.56C88.488 39.136 81.768 44.64 69.032 44.64ZM68.52 35.424C76.136 35.424 78.44 33.632 78.44 29.856C78.44 25.888 76.2 24.16 68.584 24.16C60.52 24.16 58.024 25.888 58.024 29.728C58.024 33.568 60.584 35.424 68.52 35.424Z" fill="#FFB800"></path> </svg> 