<?xml version="1.0" encoding="UTF-8"?> <svg xmlns="http://www.w3.org/2000/svg" width="59" height="8" viewBox="0 0 59 8" fill="none"> <path d="M6.32336 4L52.5 4" stroke="black" stroke-width="1.5" stroke-linecap="round"></path> <path d="M54.5475 3.28035L49.5157 0.152562C48.9129 -0.222171 48.1357 0.133851 48.0158 0.780589C47.9947 0.894278 48.0201 1.01018 48.0593 1.11895L49.0979 4.00003L48.0593 6.88111C48.0201 6.98989 47.9947 7.10578 48.0158 7.21947C48.1342 7.85706 48.8925 8.21483 49.4954 7.85977L54.5272 4.89661C55.1487 4.53065 55.1596 3.66082 54.5475 3.28035Z" fill="black"></path> <path d="M1.5 4C1.5 2.61929 2.61929 1.5 4 1.5C5.38071 1.5 6.5 2.61929 6.5 4C6.5 5.38071 5.38071 6.5 4 6.5C2.61929 6.5 1.5 5.38071 1.5 4Z" fill="white" stroke="black" stroke-width="3"></path> </svg> 