<?xml version="1.0" encoding="UTF-8"?> <svg xmlns="http://www.w3.org/2000/svg" width="86" height="45" viewBox="0 0 86 45" fill="none"> <path d="M22.04 44.64C8.216 44.64 0.6 35.936 0.6 22.56C0.6 9.248 8.216 0.48 22.04 0.48C35.8 0.48 43.48 9.248 43.48 22.56C43.48 35.936 35.8 44.64 22.04 44.64ZM22.04 35.296C30.168 35.296 33.176 31.776 33.176 22.56C33.176 13.344 30.168 9.824 22.04 9.824C13.848 9.824 10.904 13.344 10.904 22.56C10.904 31.776 13.848 35.296 22.04 35.296ZM84.904 44H46.824V37.856C46.824 30.304 50.088 26.4 59.112 23.392L70.12 19.808C73.96 18.464 75.368 17.184 75.368 14.368C75.368 11.104 73.576 9.248 66.536 9.248C58.664 9.248 56.296 11.616 56.296 16.352V17.184H46.888V16.352C46.888 8.032 52.584 0.48 66.856 0.48C79.784 0.48 85.032 6.368 85.032 14.496C85.032 22.112 80.04 25.888 72.424 28L63.08 30.56C58.92 31.84 56.936 33.056 56.936 36.448L68.136 35.36H84.904V44Z" fill="#1670F8"></path> </svg> 