<?xml version="1.0" encoding="UTF-8"?> <svg xmlns="http://www.w3.org/2000/svg" width="107" height="40" viewBox="0 0 107 40" fill="none"> <rect width="4" height="40" fill="#1670F8"></rect> <path d="M18.7784 7C18.7405 6.52652 18.563 6.1572 18.2457 5.89205C17.9332 5.62689 17.4574 5.49432 16.8182 5.49432C16.411 5.49432 16.0772 5.54403 15.8168 5.64347C15.5611 5.73816 15.3717 5.86837 15.2486 6.03409C15.1255 6.19981 15.0616 6.3892 15.0568 6.60227C15.0473 6.77746 15.0781 6.93608 15.1491 7.07812C15.2249 7.21544 15.3433 7.34091 15.5043 7.45455C15.6652 7.56345 15.8712 7.66288 16.1222 7.75284C16.3731 7.8428 16.6714 7.9233 17.017 7.99432L18.2102 8.25C19.0152 8.42045 19.7041 8.64536 20.277 8.92472C20.8499 9.20407 21.3187 9.53314 21.6832 9.91193C22.0478 10.286 22.3153 10.7074 22.4858 11.1761C22.661 11.6449 22.7509 12.1562 22.7557 12.7102C22.7509 13.6667 22.5118 14.4763 22.0384 15.1392C21.5649 15.8021 20.8878 16.3063 20.0071 16.652C19.1312 16.9976 18.0777 17.1705 16.8466 17.1705C15.5824 17.1705 14.4792 16.9834 13.5369 16.6094C12.5994 16.2353 11.8703 15.66 11.3494 14.8835C10.8333 14.1023 10.5729 13.1032 10.5682 11.8864H14.3182C14.3419 12.3314 14.4531 12.7055 14.652 13.0085C14.8509 13.3116 15.1302 13.5412 15.4901 13.6974C15.8546 13.8537 16.2879 13.9318 16.7898 13.9318C17.2112 13.9318 17.5639 13.8797 17.848 13.7756C18.1321 13.6714 18.3475 13.527 18.4943 13.3423C18.6411 13.1577 18.7169 12.947 18.7216 12.7102C18.7169 12.4877 18.6435 12.2936 18.5014 12.1278C18.3641 11.9574 18.1368 11.8059 17.8196 11.6733C17.5024 11.536 17.0739 11.4081 16.5341 11.2898L15.0852 10.9773C13.7973 10.6979 12.7817 10.2315 12.0384 9.57812C11.2997 8.91998 10.9328 8.02273 10.9375 6.88636C10.9328 5.96307 11.179 5.15578 11.6761 4.46449C12.178 3.76847 12.8717 3.22633 13.7571 2.83807C14.6473 2.44981 15.6676 2.25568 16.8182 2.25568C17.9924 2.25568 19.008 2.45218 19.8651 2.84517C20.7221 3.23816 21.3826 3.79214 21.8466 4.5071C22.3153 5.21733 22.5521 6.0483 22.5568 7H18.7784ZM28.2067 2.45455V17H24.2578V2.45455H28.2067ZM30.0781 2.45455H34.9929L38.3736 10.6932H38.544L41.9247 2.45455H46.8395V17H42.9759V8.59091H42.8622L39.6236 16.8864H37.294L34.0554 8.53409H33.9418V17H30.0781V2.45455ZM48.7109 17V2.45455H54.9893C56.0689 2.45455 57.0135 2.66761 57.8232 3.09375C58.6328 3.51989 59.2625 4.11884 59.7124 4.89062C60.1622 5.66241 60.3871 6.56439 60.3871 7.59659C60.3871 8.63826 60.1551 9.54025 59.6911 10.3026C59.2318 11.0649 58.5855 11.652 57.7521 12.0639C56.9235 12.4759 55.9553 12.6818 54.8473 12.6818H51.0973V9.61364H54.0518C54.5159 9.61364 54.9112 9.53314 55.2379 9.37216C55.5694 9.20644 55.8227 8.97206 55.9979 8.66903C56.1778 8.366 56.2678 8.00852 56.2678 7.59659C56.2678 7.17992 56.1778 6.82481 55.9979 6.53125C55.8227 6.23295 55.5694 6.00568 55.2379 5.84943C54.9112 5.68845 54.5159 5.60795 54.0518 5.60795H52.6598V17H48.7109ZM61.8359 17V2.45455H65.7848V13.8182H71.6655V17H61.8359ZM73.2617 17V2.45455H83.7447V5.63636H77.2106V8.13636H83.2049V11.3182H77.2106V13.8182H83.7163V17H73.2617ZM10.9375 37V22.4545H17.2159C18.2955 22.4545 19.2401 22.6676 20.0497 23.0938C20.8594 23.5199 21.4891 24.1188 21.9389 24.8906C22.3887 25.6624 22.6136 26.5644 22.6136 27.5966C22.6136 28.6383 22.3816 29.5402 21.9176 30.3026C21.4583 31.0649 20.812 31.652 19.9787 32.0639C19.1501 32.4759 18.1818 32.6818 17.0739 32.6818H13.3239V29.6136H16.2784C16.7424 29.6136 17.1378 29.5331 17.4645 29.3722C17.7959 29.2064 18.0492 28.9721 18.2244 28.669C18.4044 28.366 18.4943 28.0085 18.4943 27.5966C18.4943 27.1799 18.4044 26.8248 18.2244 26.5312C18.0492 26.233 17.7959 26.0057 17.4645 25.8494C17.1378 25.6884 16.7424 25.608 16.2784 25.608H14.8864V37H10.9375ZM24.0625 37V22.4545H30.3409C31.4205 22.4545 32.3651 22.651 33.1747 23.044C33.9844 23.437 34.6141 24.0028 35.0639 24.7415C35.5137 25.4801 35.7386 26.3655 35.7386 27.3977C35.7386 28.4394 35.5066 29.3177 35.0426 30.0327C34.5833 30.7476 33.937 31.2874 33.1037 31.652C32.2751 32.0166 31.3068 32.1989 30.1989 32.1989H26.4489V29.1307H29.4034C29.8674 29.1307 30.2628 29.0739 30.5895 28.9602C30.9209 28.8419 31.1742 28.6548 31.3494 28.3991C31.5294 28.1435 31.6193 27.8097 31.6193 27.3977C31.6193 26.9811 31.5294 26.6425 31.3494 26.3821C31.1742 26.117 30.9209 25.9228 30.5895 25.7997C30.2628 25.6719 29.8674 25.608 29.4034 25.608H28.0114V37H24.0625ZM32.5852 30.3239L36.2216 37H31.9318L28.3807 30.3239H32.5852ZM51.5128 29.7273C51.5128 31.3466 51.1979 32.7126 50.5682 33.8253C49.9384 34.9332 49.0885 35.7737 48.0185 36.3466C46.9484 36.9148 45.7552 37.1989 44.4389 37.1989C43.1132 37.1989 41.9152 36.9124 40.8452 36.3395C39.7798 35.7618 38.9323 34.919 38.3026 33.8111C37.6776 32.6984 37.3651 31.3371 37.3651 29.7273C37.3651 28.108 37.6776 26.7443 38.3026 25.6364C38.9323 24.5237 39.7798 23.6832 40.8452 23.1151C41.9152 22.5421 43.1132 22.2557 44.4389 22.2557C45.7552 22.2557 46.9484 22.5421 48.0185 23.1151C49.0885 23.6832 49.9384 24.5237 50.5682 25.6364C51.1979 26.7443 51.5128 28.108 51.5128 29.7273ZM47.4503 29.7273C47.4503 28.8561 47.3343 28.1222 47.1023 27.5256C46.875 26.9242 46.5365 26.4697 46.0866 26.1619C45.6416 25.8494 45.0923 25.6932 44.4389 25.6932C43.7855 25.6932 43.2339 25.8494 42.7841 26.1619C42.339 26.4697 42.0005 26.9242 41.7685 27.5256C41.5412 28.1222 41.4276 28.8561 41.4276 29.7273C41.4276 30.5985 41.5412 31.3348 41.7685 31.9361C42.0005 32.5327 42.339 32.9872 42.7841 33.2997C43.2339 33.6075 43.7855 33.7614 44.4389 33.7614C45.0923 33.7614 45.6416 33.6075 46.0866 33.2997C46.5365 32.9872 46.875 32.5327 47.1023 31.9361C47.3343 31.3348 47.4503 30.5985 47.4503 29.7273ZM66.9194 27.9091H62.9137C62.8853 27.5777 62.8095 27.277 62.6864 27.0071C62.5681 26.7372 62.4023 26.5052 62.1893 26.3111C61.9809 26.1122 61.7276 25.9607 61.4293 25.8565C61.131 25.7476 60.7925 25.6932 60.4137 25.6932C59.7508 25.6932 59.1897 25.8542 58.7305 26.1761C58.2759 26.4981 57.9303 26.9598 57.6935 27.5611C57.4615 28.1624 57.3455 28.8845 57.3455 29.7273C57.3455 30.6174 57.4639 31.3632 57.7006 31.9645C57.9421 32.5611 58.2901 33.0109 58.7447 33.3139C59.1992 33.6122 59.7461 33.7614 60.3853 33.7614C60.7499 33.7614 61.0766 33.7164 61.3654 33.6264C61.6542 33.5317 61.9052 33.3968 62.1183 33.2216C62.3313 33.0464 62.5041 32.8357 62.6367 32.5895C62.774 32.3385 62.8664 32.0568 62.9137 31.7443L66.9194 31.7727C66.872 32.3883 66.6992 33.0156 66.4009 33.6548C66.1026 34.2893 65.6789 34.8764 65.1296 35.4162C64.5851 35.9512 63.9104 36.3821 63.1055 36.7088C62.3005 37.0355 61.3654 37.1989 60.3001 37.1989C58.9648 37.1989 57.7669 36.9124 56.7063 36.3395C55.6504 35.7666 54.8147 34.9238 54.1992 33.8111C53.5884 32.6984 53.283 31.3371 53.283 29.7273C53.283 28.108 53.5955 26.7443 54.2205 25.6364C54.8455 24.5237 55.6883 23.6832 56.7489 23.1151C57.8095 22.5421 58.9933 22.2557 60.3001 22.2557C61.2186 22.2557 62.0638 22.3812 62.8356 22.6321C63.6074 22.883 64.2844 23.25 64.8668 23.733C65.4492 24.2112 65.918 24.8007 66.2731 25.5014C66.6282 26.2022 66.8436 27.0047 66.9194 27.9091ZM68.7109 37V22.4545H79.1939V25.6364H72.6598V28.1364H78.6541V31.3182H72.6598V33.8182H79.1655V37H68.7109ZM88.9933 27C88.9554 26.5265 88.7778 26.1572 88.4606 25.892C88.1481 25.6269 87.6722 25.4943 87.033 25.4943C86.6258 25.4943 86.292 25.544 86.0316 25.6435C85.7759 25.7382 85.5865 25.8684 85.4634 26.0341C85.3403 26.1998 85.2764 26.3892 85.2717 26.6023C85.2622 26.7775 85.293 26.9361 85.364 27.0781C85.4397 27.2154 85.5581 27.3409 85.7191 27.4545C85.8801 27.5634 86.0861 27.6629 86.337 27.7528C86.588 27.8428 86.8862 27.9233 87.2319 27.9943L88.4251 28.25C89.23 28.4205 89.9189 28.6454 90.4918 28.9247C91.0647 29.2041 91.5335 29.5331 91.8981 29.9119C92.2627 30.286 92.5302 30.7074 92.7006 31.1761C92.8758 31.6449 92.9658 32.1562 92.9705 32.7102C92.9658 33.6667 92.7267 34.4763 92.2532 35.1392C91.7797 35.8021 91.1026 36.3063 90.2219 36.652C89.346 36.9976 88.2925 37.1705 87.0614 37.1705C85.7972 37.1705 84.694 36.9834 83.7518 36.6094C82.8143 36.2353 82.0851 35.66 81.5643 34.8835C81.0482 34.1023 80.7878 33.1032 80.783 31.8864H84.533C84.5567 32.3314 84.668 32.7055 84.8668 33.0085C85.0657 33.3116 85.3451 33.5412 85.7049 33.6974C86.0695 33.8537 86.5027 33.9318 87.0046 33.9318C87.426 33.9318 87.7788 33.8797 88.0629 33.7756C88.3469 33.6714 88.5624 33.527 88.7092 33.3423C88.8559 33.1577 88.9317 32.947 88.9364 32.7102C88.9317 32.4877 88.8583 32.2936 88.7163 32.1278C88.579 31.9574 88.3517 31.8059 88.0344 31.6733C87.7172 31.536 87.2887 31.4081 86.7489 31.2898L85.3001 30.9773C84.0122 30.6979 82.9966 30.2315 82.2532 29.5781C81.5146 28.92 81.1476 28.0227 81.1523 26.8864C81.1476 25.9631 81.3938 25.1558 81.891 24.4645C82.3929 23.7685 83.0865 23.2263 83.9719 22.8381C84.8621 22.4498 85.8825 22.2557 87.033 22.2557C88.2073 22.2557 89.2229 22.4522 90.0799 22.8452C90.9369 23.2382 91.5974 23.7921 92.0614 24.5071C92.5302 25.2173 92.7669 26.0483 92.7717 27H88.9933ZM102.314 27C102.276 26.5265 102.098 26.1572 101.781 25.892C101.468 25.6269 100.993 25.4943 100.353 25.4943C99.9461 25.4943 99.6123 25.544 99.3519 25.6435C99.0962 25.7382 98.9068 25.8684 98.7837 26.0341C98.6606 26.1998 98.5967 26.3892 98.592 26.6023C98.5825 26.7775 98.6133 26.9361 98.6843 27.0781C98.7601 27.2154 98.8784 27.3409 99.0394 27.4545C99.2004 27.5634 99.4064 27.6629 99.6573 27.7528C99.9083 27.8428 100.207 27.9233 100.552 27.9943L101.745 28.25C102.55 28.4205 103.239 28.6454 103.812 28.9247C104.385 29.2041 104.854 29.5331 105.218 29.9119C105.583 30.286 105.85 30.7074 106.021 31.1761C106.196 31.6449 106.286 32.1562 106.291 32.7102C106.286 33.6667 106.047 34.4763 105.574 35.1392C105.1 35.8021 104.423 36.3063 103.542 36.652C102.666 36.9976 101.613 37.1705 100.382 37.1705C99.1175 37.1705 98.0143 36.9834 97.0721 36.6094C96.1346 36.2353 95.4054 35.66 94.8846 34.8835C94.3685 34.1023 94.1081 33.1032 94.1033 31.8864H97.8533C97.877 32.3314 97.9883 32.7055 98.1871 33.0085C98.386 33.3116 98.6654 33.5412 99.0252 33.6974C99.3898 33.8537 99.823 33.9318 100.325 33.9318C100.746 33.9318 101.099 33.8797 101.383 33.7756C101.667 33.6714 101.883 33.527 102.029 33.3423C102.176 33.1577 102.252 32.947 102.257 32.7102C102.252 32.4877 102.179 32.2936 102.037 32.1278C101.899 31.9574 101.672 31.8059 101.355 31.6733C101.038 31.536 100.609 31.4081 100.069 31.2898L98.6204 30.9773C97.3325 30.6979 96.3169 30.2315 95.5735 29.5781C94.8349 28.92 94.4679 28.0227 94.4727 26.8864C94.4679 25.9631 94.7141 25.1558 95.2113 24.4645C95.7132 23.7685 96.4068 23.2263 97.2923 22.8381C98.1824 22.4498 99.2028 22.2557 100.353 22.2557C101.528 22.2557 102.543 22.4522 103.4 22.8452C104.257 23.2382 104.918 23.7921 105.382 24.5071C105.85 25.2173 106.087 26.0483 106.092 27H102.314Z" fill="white"></path> </svg> 