<?xml version="1.0" encoding="UTF-8"?> <svg xmlns="http://www.w3.org/2000/svg" width="1224" height="1417" viewBox="0 0 1224 1417" fill="none"> <path d="M1065 1375.98C895.4 1419.58 848.5 1286.48 848.5 1186.48C849.7 1076.88 799 943.976 655 926.976C564.5 916.292 533.928 950.816 444 913.476C299.5 853.476 358.5 745.476 427 625.976C495.5 506.476 430.5 366.976 324.5 329.476C218.5 291.976 8.30498 290.756 34.5 128.475C55 1.47559 344.833 25.9754 508.5 56.4754C573.833 73.4755 668 103.476 724 199.976C781.913 299.772 784.5 432.476 955.5 432.476C1070.5 432.476 1167.83 279.809 1191 199.976" stroke="#131313" stroke-width="64" stroke-linecap="round"></path> </svg> 