<?xml version="1.0" encoding="UTF-8"?> <svg xmlns="http://www.w3.org/2000/svg" width="2332" height="1529" viewBox="0 0 2332 1529" fill="none"> <path d="M33 558.976C53.4 702.176 206.5 724.595 301.5 700.476C494.5 651.476 499.5 526.975 525 368.975C542.915 257.975 595.176 198.786 658 138.476C733 66.4756 882 8.96765 983 42.4658C1135.27 92.9675 1147 237.453 1074.5 333.447C1008.65 420.633 920.5 504.437 920.5 670.427C920.5 874.549 1128.31 857.134 1228.5 843.416C1349 826.917 1495.5 867.414 1387.5 1040.9C1308.8 1167.33 1389.5 1264.39 1495.5 1228.39C1601.5 1192.39 1643.19 1018.15 1830 1076.9C1882.5 1093.41 1926 1140.98 1940 1166.98C1954.3 1193.53 1972 1239.38 1994 1322.98C2005.17 1362.64 2037.4 1448.38 2077 1473.98C2126.5 1505.98 2246 1510.48 2299 1440.98" stroke="#131313" stroke-width="64" stroke-linecap="round"></path> </svg> 