<?xml version="1.0" encoding="UTF-8"?> <svg xmlns="http://www.w3.org/2000/svg" width="204" height="43" viewBox="0 0 204 43" fill="none"> <rect width="200.25" height="42" rx="13.5" fill="#1670F8"></rect> <path d="M13.9182 17.7117C11.3408 17.7117 9.79688 15.8813 9.79688 13.0114V12.9989C9.79688 10.1165 11.3782 8.30481 13.9182 8.30481C16.4707 8.30481 18.0396 10.1227 18.0396 12.9989V13.0114C18.0396 15.8751 16.4832 17.7117 13.9182 17.7117ZM13.9182 16.6782C15.761 16.6782 16.894 15.2339 16.894 13.0114V12.9989C16.894 10.7577 15.7548 9.33826 13.9182 9.33826C12.0879 9.33826 10.9424 10.7577 10.9424 12.9989V13.0114C10.9424 15.2339 12.0505 16.6782 13.9182 16.6782ZM21.7864 17.6183C20.2611 17.6183 19.4767 16.7218 19.4767 15.1343V10.7888H20.56V14.8728C20.56 16.0806 20.9958 16.6595 22.0666 16.6595C23.2494 16.6595 23.8782 15.9374 23.8782 14.7607V10.7888H24.9615V17.5H23.8782V16.4977H23.7786C23.4486 17.2136 22.7701 17.6183 21.7864 17.6183ZM26.6788 17.5V10.7888H27.762V11.7849H27.8616C28.1169 11.0814 28.7457 10.6705 29.6546 10.6705C29.86 10.6705 30.0904 10.6954 30.1962 10.7141V11.7662C29.9721 11.7289 29.7667 11.704 29.5301 11.704C28.4966 11.704 27.762 12.3577 27.762 13.3413V17.5H26.6788ZM36.8931 17.5498C35.511 17.5498 34.932 17.0393 34.932 15.7568V11.6853H33.8737V10.7888H34.932V9.05188H36.0526V10.7888H37.5219V11.6853H36.0526V15.4829C36.0526 16.2736 36.3265 16.5911 37.0238 16.5911C37.2168 16.5911 37.3226 16.5848 37.5219 16.5662V17.4875C37.3102 17.5249 37.1047 17.5498 36.8931 17.5498ZM41.4741 17.6183C39.5567 17.6183 38.3987 16.2736 38.3987 14.1693V14.1631C38.3987 12.09 39.5816 10.6705 41.4057 10.6705C43.2298 10.6705 44.3379 12.0277 44.3379 14.0323V14.4557H39.5069C39.538 15.844 40.3037 16.6533 41.4991 16.6533C42.408 16.6533 42.9683 16.2238 43.1488 15.8191L43.1737 15.7631H44.257L44.2445 15.8129C44.0142 16.7218 43.0554 17.6183 41.4741 17.6183ZM41.3994 11.6355C40.4033 11.6355 39.6438 12.3141 39.5255 13.5903H43.236C43.1239 12.2643 42.3893 11.6355 41.3994 11.6355ZM47.5556 17.6183C46.2794 17.6183 45.3144 16.8463 45.3144 15.6261V15.6136C45.3144 14.4183 46.1984 13.7273 47.761 13.6339L49.6848 13.5156V12.9055C49.6848 12.0775 49.1805 11.6293 48.1782 11.6293C47.3751 11.6293 46.8459 11.9281 46.6716 12.451L46.6653 12.4697H45.5821L45.5883 12.4324C45.7626 11.3802 46.7836 10.6705 48.2155 10.6705C49.8528 10.6705 50.768 11.511 50.768 12.9055V17.5H49.6848V16.5101H49.5851C49.1618 17.2261 48.4583 17.6183 47.5556 17.6183ZM46.4225 15.6012C46.4225 16.2798 47.0015 16.6782 47.7797 16.6782C48.8817 16.6782 49.6848 15.9561 49.6848 14.9973V14.3872L47.8918 14.4993C46.8708 14.5615 46.4225 14.9226 46.4225 15.5887V15.6012ZM52.4417 17.5V10.7888H53.525V11.8098H53.6246C53.9234 11.0876 54.5584 10.6705 55.4362 10.6705C56.3452 10.6705 56.9802 11.1499 57.2915 11.8472H57.3911C57.7522 11.1375 58.5179 10.6705 59.4455 10.6705C60.8152 10.6705 61.5809 11.455 61.5809 12.8619V17.5H60.4977V13.111C60.4977 12.1211 60.0432 11.6293 59.0969 11.6293C58.1631 11.6293 57.5467 12.3328 57.5467 13.1857V17.5H56.4635V12.9429C56.4635 12.146 55.9156 11.6293 55.0689 11.6293C54.1911 11.6293 53.525 12.395 53.525 13.3413V17.5H52.4417ZM67.8046 17.5L65.9245 10.7888H67.0077L68.3275 16.1553H68.4272L69.9275 10.7888H70.9547L72.4551 16.1553H72.5547L73.8745 10.7888H74.9516L73.0714 17.5H71.982L70.4816 12.3079H70.382L68.8878 17.5H67.8046ZM76.6502 9.4939C76.2393 9.4939 75.9031 9.15771 75.9031 8.74683C75.9031 8.33594 76.2393 7.99976 76.6502 7.99976C77.0611 7.99976 77.3973 8.33594 77.3973 8.74683C77.3973 9.15771 77.0611 9.4939 76.6502 9.4939ZM76.1024 17.5V10.7888H77.1856V17.5H76.1024ZM78.9839 17.5V8.12427H80.0671V17.5H78.9839ZM81.9027 17.5V8.12427H82.986V17.5H81.9027ZM88.1015 17.5V8.12427H89.1848V11.7974H89.2844C89.6205 11.0876 90.2493 10.6705 91.2392 10.6705C92.7458 10.6705 93.5862 11.5608 93.5862 13.1545V17.5H92.503V13.416C92.503 12.2083 92.0049 11.6293 90.9341 11.6293C89.8633 11.6293 89.1848 12.3514 89.1848 13.5281V17.5H88.1015ZM97.9806 17.6183C96.0631 17.6183 94.9051 16.2736 94.9051 14.1693V14.1631C94.9051 12.09 96.088 10.6705 97.9121 10.6705C99.7362 10.6705 100.844 12.0277 100.844 14.0323V14.4557H96.0133C96.0444 15.844 96.8102 16.6533 98.0055 16.6533C98.9144 16.6533 99.4747 16.2238 99.6552 15.8191L99.6801 15.7631H100.763L100.751 15.8129C100.521 16.7218 99.5619 17.6183 97.9806 17.6183ZM97.9059 11.6355C96.9098 11.6355 96.1502 12.3141 96.032 13.5903H99.7424C99.6303 12.2643 98.8957 11.6355 97.9059 11.6355ZM102.281 17.5V8.12427H103.365V17.5H102.281ZM105.138 19.7412V10.7888H106.221V11.8596H106.321C106.732 11.1125 107.479 10.6705 108.413 10.6705C110.112 10.6705 111.227 12.0464 111.227 14.1382V14.1506C111.227 16.2549 110.119 17.6183 108.413 17.6183C107.491 17.6183 106.688 17.1576 106.321 16.4417H106.221V19.7412H105.138ZM108.164 16.6595C109.39 16.6595 110.119 15.7133 110.119 14.1506V14.1382C110.119 12.5756 109.39 11.6293 108.164 11.6293C106.944 11.6293 106.196 12.588 106.196 14.1382V14.1506C106.196 15.7008 106.944 16.6595 108.164 16.6595ZM116.467 19.8533C116.324 19.8533 116.137 19.8408 115.987 19.8159V18.9257C116.118 18.9506 116.286 18.9568 116.436 18.9568C117.052 18.9568 117.425 18.6766 117.668 17.9047L117.793 17.5062L115.309 10.7888H116.467L118.31 16.3109H118.409L120.246 10.7888H121.385L118.764 17.9109C118.21 19.4175 117.656 19.8533 116.467 19.8533ZM125.02 17.6183C123.109 17.6183 121.926 16.2985 121.926 14.1506V14.1382C121.926 11.9841 123.109 10.6705 125.02 10.6705C126.931 10.6705 128.114 11.9841 128.114 14.1382V14.1506C128.114 16.2985 126.931 17.6183 125.02 17.6183ZM125.02 16.6595C126.29 16.6595 127.006 15.7319 127.006 14.1506V14.1382C127.006 12.5507 126.29 11.6293 125.02 11.6293C123.75 11.6293 123.034 12.5507 123.034 14.1382V14.1506C123.034 15.7319 123.75 16.6595 125.02 16.6595ZM131.736 17.6183C130.211 17.6183 129.427 16.7218 129.427 15.1343V10.7888H130.51V14.8728C130.51 16.0806 130.946 16.6595 132.016 16.6595C133.199 16.6595 133.828 15.9374 133.828 14.7607V10.7888H134.911V17.5H133.828V16.4977H133.728C133.398 17.2136 132.72 17.6183 131.736 17.6183ZM141.751 17.6183C140.475 17.6183 139.51 16.8463 139.51 15.6261V15.6136C139.51 14.4183 140.394 13.7273 141.957 13.6339L143.88 13.5156V12.9055C143.88 12.0775 143.376 11.6293 142.374 11.6293C141.571 11.6293 141.042 11.9281 140.867 12.451L140.861 12.4697H139.778L139.784 12.4324C139.958 11.3802 140.979 10.6705 142.411 10.6705C144.049 10.6705 144.964 11.511 144.964 12.9055V17.5H143.88V16.5101H143.781C143.358 17.2261 142.654 17.6183 141.751 17.6183ZM140.618 15.6012C140.618 16.2798 141.197 16.6782 141.975 16.6782C143.077 16.6782 143.88 15.9561 143.88 14.9973V14.3872L142.087 14.4993C141.066 14.5615 140.618 14.9226 140.618 15.5887V15.6012ZM148.941 17.6183C147.447 17.6183 146.42 16.8961 146.295 15.788H147.403C147.584 16.3483 148.119 16.7156 148.978 16.7156C149.881 16.7156 150.522 16.286 150.522 15.6759V15.6635C150.522 15.209 150.18 14.8915 149.352 14.6923L148.312 14.4432C147.055 14.1444 146.488 13.5966 146.488 12.6316V12.6254C146.488 11.511 147.559 10.6705 148.984 10.6705C150.391 10.6705 151.369 11.374 151.518 12.4697H150.454C150.311 11.9406 149.788 11.5732 148.978 11.5732C148.181 11.5732 147.596 11.9841 147.596 12.5756V12.588C147.596 13.0425 147.932 13.3289 148.723 13.5219L149.756 13.7709C151.02 14.0759 151.63 14.6238 151.63 15.5825V15.595C151.63 16.7903 150.466 17.6183 148.941 17.6183ZM14.6902 35.7412V32.4915H14.5906C14.2233 33.2012 13.4513 33.6183 12.4926 33.6183C10.7867 33.6183 9.67236 32.2424 9.67236 30.1506V30.1382C9.67236 28.0339 10.7805 26.6705 12.4926 26.6705C13.3953 26.6705 14.1859 27.1437 14.6155 27.9094H14.6902V26.7888H15.7734V35.7412H14.6902ZM12.7478 32.6595C13.9556 32.6595 14.7213 31.6884 14.7213 30.1506V30.1382C14.7213 28.5942 13.9556 27.6293 12.7416 27.6293C11.5151 27.6293 10.7805 28.5756 10.7805 30.1382V30.1506C10.7805 31.7133 11.5151 32.6595 12.7478 32.6595ZM19.7195 33.6183C18.1942 33.6183 17.4098 32.7218 17.4098 31.1343V26.7888H18.4931V30.8728C18.4931 32.0806 18.9289 32.6595 19.9997 32.6595C21.1825 32.6595 21.8113 31.9374 21.8113 30.7607V26.7888H22.8946V33.5H21.8113V32.4977H21.7117C21.3817 33.2136 20.7032 33.6183 19.7195 33.6183ZM25.1846 25.4939C24.7737 25.4939 24.4376 25.1577 24.4376 24.7468C24.4376 24.3359 24.7737 23.9998 25.1846 23.9998C25.5955 23.9998 25.9317 24.3359 25.9317 24.7468C25.9317 25.1577 25.5955 25.4939 25.1846 25.4939ZM24.6368 33.5V26.7888H25.72V33.5H24.6368ZM30.2015 33.6183C28.3214 33.6183 27.1198 32.2549 27.1198 30.1257V30.1133C27.1198 28.0277 28.3152 26.6705 30.1953 26.6705C31.8264 26.6705 32.8038 27.6106 33.003 28.8059L33.0092 28.8433H31.9322L31.926 28.8246C31.7579 28.1647 31.1602 27.6293 30.1953 27.6293C28.9875 27.6293 28.228 28.6005 28.228 30.1133V30.1257C28.228 31.6697 29 32.6595 30.1953 32.6595C31.098 32.6595 31.6707 32.2611 31.9198 31.514L31.9322 31.4767L33.003 31.4705L32.9906 31.5389C32.7166 32.7529 31.8139 33.6183 30.2015 33.6183ZM34.3468 33.5V24.1243H35.4301V29.7211H35.5297L38.4308 26.7888H39.7444L36.8184 29.609L39.9374 33.5H38.574L36.0588 30.3436L35.4301 30.9537V33.5H34.3468ZM40.9637 33.5V24.1243H42.0469V33.5H40.9637ZM44.393 35.8533C44.2498 35.8533 44.063 35.8408 43.9136 35.8159V34.9257C44.0444 34.9506 44.2125 34.9568 44.3619 34.9568C44.9782 34.9568 45.3517 34.6766 45.5945 33.9047L45.7191 33.5062L43.235 26.7888H44.393L46.2358 32.3109H46.3354L48.1719 26.7888H49.3112L46.6902 33.9109C46.1362 35.4175 45.5821 35.8533 44.393 35.8533ZM55.5598 33.6183C54.2836 33.6183 53.3186 32.8463 53.3186 31.6261V31.6136C53.3186 30.4183 54.2026 29.7273 55.7653 29.6339L57.689 29.5156V28.9055C57.689 28.0775 57.1847 27.6293 56.1824 27.6293C55.3793 27.6293 54.8501 27.9281 54.6758 28.451L54.6696 28.4697H53.5863L53.5925 28.4324C53.7668 27.3802 54.7878 26.6705 56.2197 26.6705C57.8571 26.6705 58.7722 27.511 58.7722 28.9055V33.5H57.689V32.5101H57.5894C57.166 33.2261 56.4625 33.6183 55.5598 33.6183ZM54.4268 31.6012C54.4268 32.2798 55.0057 32.6782 55.7839 32.6782C56.8859 32.6782 57.689 31.9561 57.689 30.9973V30.3872L55.896 30.4993C54.875 30.5615 54.4268 30.9226 54.4268 31.5887V31.6012ZM62.7494 33.6183C61.2553 33.6183 60.2281 32.8961 60.1035 31.788H61.2117C61.3922 32.3483 61.9276 32.7156 62.7868 32.7156C63.6895 32.7156 64.3307 32.286 64.3307 31.6759V31.6635C64.3307 31.209 63.9883 30.8915 63.1603 30.6923L62.1206 30.4432C60.8631 30.1444 60.2965 29.5966 60.2965 28.6316V28.6254C60.2965 27.511 61.3673 26.6705 62.793 26.6705C64.2 26.6705 65.1774 27.374 65.3268 28.4697H64.2622C64.119 27.9406 63.5961 27.5732 62.7868 27.5732C61.9899 27.5732 61.4047 27.9841 61.4047 28.5756V28.588C61.4047 29.0425 61.7409 29.3289 62.5315 29.5219L63.565 29.7709C64.8288 30.0759 65.4389 30.6238 65.4389 31.5825V31.595C65.4389 32.7903 64.2747 33.6183 62.7494 33.6183ZM70.0937 35.7412V26.7888H71.177V27.8596H71.2766C71.6875 27.1125 72.4345 26.6705 73.3684 26.6705C75.068 26.6705 76.1823 28.0464 76.1823 30.1382V30.1506C76.1823 32.2549 75.0742 33.6183 73.3684 33.6183C72.447 33.6183 71.6439 33.1576 71.2766 32.4417H71.177V35.7412H70.0937ZM73.1194 32.6595C74.3458 32.6595 75.0742 31.7133 75.0742 30.1506V30.1382C75.0742 28.5756 74.3458 27.6293 73.1194 27.6293C71.8991 27.6293 71.1521 28.588 71.1521 30.1382V30.1506C71.1521 31.7008 71.8991 32.6595 73.1194 32.6595ZM80.3276 33.6183C78.4164 33.6183 77.2335 32.2985 77.2335 30.1506V30.1382C77.2335 27.9841 78.4164 26.6705 80.3276 26.6705C82.2389 26.6705 83.4218 27.9841 83.4218 30.1382V30.1506C83.4218 32.2985 82.2389 33.6183 80.3276 33.6183ZM80.3276 32.6595C81.5977 32.6595 82.3136 31.7319 82.3136 30.1506V30.1382C82.3136 28.5507 81.5977 27.6293 80.3276 27.6293C79.0576 27.6293 78.3417 28.5507 78.3417 30.1382V30.1506C78.3417 31.7319 79.0576 32.6595 80.3276 32.6595ZM87.1001 33.6183C85.606 33.6183 84.5788 32.8961 84.4543 31.788H85.5624C85.743 32.3483 86.2784 32.7156 87.1375 32.7156C88.0402 32.7156 88.6814 32.286 88.6814 31.6759V31.6635C88.6814 31.209 88.339 30.8915 87.511 30.6923L86.4713 30.4432C85.2138 30.1444 84.6472 29.5966 84.6472 28.6316V28.6254C84.6472 27.511 85.718 26.6705 87.1437 26.6705C88.5507 26.6705 89.5281 27.374 89.6775 28.4697H88.6129C88.4698 27.9406 87.9468 27.5732 87.1375 27.5732C86.3406 27.5732 85.7554 27.9841 85.7554 28.5756V28.588C85.7554 29.0425 86.0916 29.3289 86.8822 29.5219L87.9157 29.7709C89.1795 30.0759 89.7896 30.6238 89.7896 31.5825V31.595C89.7896 32.7903 88.6254 33.6183 87.1001 33.6183ZM93.3434 33.6183C91.8493 33.6183 90.8221 32.8961 90.6976 31.788H91.8057C91.9863 32.3483 92.5217 32.7156 93.3808 32.7156C94.2835 32.7156 94.9247 32.286 94.9247 31.6759V31.6635C94.9247 31.209 94.5823 30.8915 93.7543 30.6923L92.7147 30.4432C91.4571 30.1444 90.8906 29.5966 90.8906 28.6316V28.6254C90.8906 27.511 91.9614 26.6705 93.387 26.6705C94.794 26.6705 95.7714 27.374 95.9208 28.4697H94.8563C94.7131 27.9406 94.1901 27.5732 93.3808 27.5732C92.5839 27.5732 91.9987 27.9841 91.9987 28.5756V28.588C91.9987 29.0425 92.3349 29.3289 93.1255 29.5219L94.159 29.7709C95.4228 30.0759 96.0329 30.6238 96.0329 31.5825V31.595C96.0329 32.7903 94.8687 33.6183 93.3434 33.6183ZM97.9806 25.4939C97.5697 25.4939 97.2335 25.1577 97.2335 24.7468C97.2335 24.3359 97.5697 23.9998 97.9806 23.9998C98.3914 23.9998 98.7276 24.3359 98.7276 24.7468C98.7276 25.1577 98.3914 25.4939 97.9806 25.4939ZM97.4327 33.5V26.7888H98.516V33.5H97.4327ZM103.589 33.6183C102.655 33.6183 101.908 33.1763 101.497 32.4292H101.397V33.5H100.314V24.1243H101.397V27.8472H101.497C101.864 27.1312 102.667 26.6705 103.589 26.6705C105.295 26.6705 106.403 28.0339 106.403 30.1382V30.1506C106.403 32.2424 105.288 33.6183 103.589 33.6183ZM103.34 32.6595C104.566 32.6595 105.295 31.7133 105.295 30.1506V30.1382C105.295 28.5756 104.566 27.6293 103.34 27.6293C102.12 27.6293 101.373 28.588 101.373 30.1382V30.1506C101.373 31.7008 102.12 32.6595 103.34 32.6595ZM107.84 33.5V24.1243H108.923V33.5H107.84ZM113.436 33.6183C111.518 33.6183 110.36 32.2736 110.36 30.1693V30.1631C110.36 28.09 111.543 26.6705 113.367 26.6705C115.191 26.6705 116.3 28.0277 116.3 30.0323V30.4557H111.469C111.5 31.844 112.265 32.6533 113.461 32.6533C114.37 32.6533 114.93 32.2238 115.111 31.8191L115.135 31.7631H116.219L116.206 31.8129C115.976 32.7218 115.017 33.6183 113.436 33.6183ZM113.361 27.6355C112.365 27.6355 111.606 28.3141 111.487 29.5903H115.198C115.086 28.2643 114.351 27.6355 113.361 27.6355ZM118.129 30.5117L118.023 24.5103H119.268L119.162 30.5117H118.129ZM118.652 33.6121C118.148 33.6121 117.787 33.251 117.787 32.7467C117.787 32.2362 118.148 31.8751 118.652 31.8751C119.156 31.8751 119.511 32.2362 119.511 32.7467C119.511 33.251 119.156 33.6121 118.652 33.6121Z" fill="white"></path> <path d="M203.166 42.1385C199.266 42.7385 195.416 40.5909 194.166 39.2159C195.454 36.1436 187.5 28.6814 192.75 28.6811C193.964 28.6811 195 25.501 199.416 27.8885C199.432 28.8536 199.416 32.1944 199.416 32.7632C199.416 40.6382 203.916 41.686 203.166 42.1385Z" fill="#1670F8"></path> </svg> 