<?xml version="1.0" encoding="UTF-8"?> <svg xmlns="http://www.w3.org/2000/svg" width="155" height="26" viewBox="0 0 155 26" fill="none"> <path d="M0.0890255 25.8982C4.20665 26.4887 8.27148 24.3753 9.59123 23.0221C8.23093 19.9985 16.6291 12.6547 11.0862 12.6544C9.80448 12.6544 8.70978 9.52483 4.04827 11.8744C4.03148 12.8242 4.04827 16.1119 4.04827 16.6717C4.04827 24.4217 -0.702825 25.4529 0.0890255 25.8982Z" fill="black"></path> <rect x="4.07495" width="150.925" height="26" rx="13" fill="black"></rect> <path d="M14.2205 17.5V8.51648H15.3411V12.4012H20.2717V8.51648H21.3923V17.5H20.2717V13.4098H15.3411V17.5H14.2205ZM23.8131 9.4939C23.4023 9.4939 23.0661 9.15771 23.0661 8.74683C23.0661 8.33594 23.4023 7.99976 23.8131 7.99976C24.224 7.99976 24.5602 8.33594 24.5602 8.74683C24.5602 9.15771 24.224 9.4939 23.8131 9.4939ZM23.2653 17.5V10.7888H24.3485V17.5H23.2653ZM25.8106 19.7848L26.3522 16.2424H27.5911L26.6137 19.7848H25.8106ZM32.9806 17.5V8.51648H34.1012V17.5H32.9806ZM39.2914 17.5V8.12427H40.3747V11.7974H40.4743C40.8105 11.0876 41.4393 10.6705 42.4291 10.6705C43.9357 10.6705 44.7762 11.5608 44.7762 13.1545V17.5H43.6929V13.416C43.6929 12.2083 43.1949 11.6293 42.1241 11.6293C41.0533 11.6293 40.3747 12.3514 40.3747 13.5281V17.5H39.2914ZM48.274 17.6183C46.9978 17.6183 46.0328 16.8463 46.0328 15.6261V15.6136C46.0328 14.4183 46.9168 13.7273 48.4795 13.6339L50.4032 13.5156V12.9055C50.4032 12.0775 49.8989 11.6293 48.8966 11.6293C48.0935 11.6293 47.5643 11.9281 47.39 12.451L47.3838 12.4697H46.3005L46.3067 12.4324C46.481 11.3802 47.502 10.6705 48.9339 10.6705C50.5713 10.6705 51.4864 11.511 51.4864 12.9055V17.5H50.4032V16.5101H50.3036C49.8802 17.2261 49.1767 17.6183 48.274 17.6183ZM47.141 15.6012C47.141 16.2798 47.7199 16.6782 48.4981 16.6782C49.6001 16.6782 50.4032 15.9561 50.4032 14.9973V14.3872L48.6102 14.4993C47.5892 14.5615 47.141 14.9226 47.141 15.5887V15.6012ZM54.8099 17.5L52.3259 10.7888H53.4714L55.308 16.3171H55.4076L57.2441 10.7888H58.3896L55.9056 17.5H54.8099ZM62.0058 17.6183C60.0883 17.6183 58.9303 16.2736 58.9303 14.1693V14.1631C58.9303 12.09 60.1132 10.6705 61.9373 10.6705C63.7614 10.6705 64.8695 12.0277 64.8695 14.0323V14.4557H60.0385C60.0696 15.844 60.8354 16.6533 62.0307 16.6533C62.9396 16.6533 63.4999 16.2238 63.6804 15.8191L63.7053 15.7631H64.7886L64.7761 15.8129C64.5458 16.7218 63.5871 17.6183 62.0058 17.6183ZM61.9311 11.6355C60.935 11.6355 60.1754 12.3141 60.0572 13.5903H63.7676C63.6555 12.2643 62.9209 11.6355 61.9311 11.6355ZM71.3672 17.6183C70.0909 17.6183 69.1259 16.8463 69.1259 15.6261V15.6136C69.1259 14.4183 70.01 13.7273 71.5726 13.6339L73.4963 13.5156V12.9055C73.4963 12.0775 72.992 11.6293 71.9897 11.6293C71.1866 11.6293 70.6574 11.9281 70.4831 12.451L70.4769 12.4697H69.3936L69.3999 12.4324C69.5742 11.3802 70.5952 10.6705 72.0271 10.6705C73.6644 10.6705 74.5796 11.511 74.5796 12.9055V17.5H73.4963V16.5101H73.3967C72.9734 17.2261 72.2699 17.6183 71.3672 17.6183ZM70.2341 15.6012C70.2341 16.2798 70.8131 16.6782 71.5913 16.6782C72.6932 16.6782 73.4963 15.9561 73.4963 14.9973V14.3872L71.7033 14.4993C70.6823 14.5615 70.2341 14.9226 70.2341 15.5887V15.6012ZM79.5332 19.7412V10.7888H80.6165V11.8596H80.7161C81.127 11.1125 81.8741 10.6705 82.8079 10.6705C84.5075 10.6705 85.6219 12.0464 85.6219 14.1382V14.1506C85.6219 16.2549 84.5137 17.6183 82.8079 17.6183C81.8865 17.6183 81.0834 17.1576 80.7161 16.4417H80.6165V19.7412H79.5332ZM82.5589 16.6595C83.7853 16.6595 84.5137 15.7133 84.5137 14.1506V14.1382C84.5137 12.5756 83.7853 11.6293 82.5589 11.6293C81.3387 11.6293 80.5916 12.588 80.5916 14.1382V14.1506C80.5916 15.7008 81.3387 16.6595 82.5589 16.6595ZM87.0092 17.5V10.7888H88.0925V11.7849H88.1921C88.4473 11.0814 89.0761 10.6705 89.985 10.6705C90.1905 10.6705 90.4208 10.6954 90.5267 10.7141V11.7662C90.3026 11.7289 90.0971 11.704 89.8605 11.704C88.8271 11.704 88.0925 12.3577 88.0925 13.3413V17.5H87.0092ZM94.1303 17.6183C92.2191 17.6183 91.0362 16.2985 91.0362 14.1506V14.1382C91.0362 11.9841 92.2191 10.6705 94.1303 10.6705C96.0416 10.6705 97.2245 11.9841 97.2245 14.1382V14.1506C97.2245 16.2985 96.0416 17.6183 94.1303 17.6183ZM94.1303 16.6595C95.4004 16.6595 96.1163 15.7319 96.1163 14.1506V14.1382C96.1163 12.5507 95.4004 11.6293 94.1303 11.6293C92.8603 11.6293 92.1444 12.5507 92.1444 14.1382V14.1506C92.1444 15.7319 92.8603 16.6595 94.1303 16.6595ZM101.936 17.6183C101.002 17.6183 100.255 17.1763 99.8445 16.4292H99.7449V17.5H98.6616V8.12427H99.7449V11.8472H99.8445C100.212 11.1312 101.015 10.6705 101.936 10.6705C103.642 10.6705 104.75 12.0339 104.75 14.1382V14.1506C104.75 16.2424 103.636 17.6183 101.936 17.6183ZM101.687 16.6595C102.914 16.6595 103.642 15.7133 103.642 14.1506V14.1382C103.642 12.5756 102.914 11.6293 101.687 11.6293C100.467 11.6293 99.72 12.588 99.72 14.1382V14.1506C99.72 15.7008 100.467 16.6595 101.687 16.6595ZM106.187 17.5V8.12427H107.271V17.5H106.187ZM111.783 17.6183C109.866 17.6183 108.708 16.2736 108.708 14.1693V14.1631C108.708 12.09 109.891 10.6705 111.715 10.6705C113.539 10.6705 114.647 12.0277 114.647 14.0323V14.4557H109.816C109.847 15.844 110.613 16.6533 111.808 16.6533C112.717 16.6533 113.277 16.2238 113.458 15.8191L113.483 15.7631H114.566L114.554 15.8129C114.323 16.7218 113.365 17.6183 111.783 17.6183ZM111.709 11.6355C110.712 11.6355 109.953 12.3141 109.835 13.5903H113.545C113.433 12.2643 112.698 11.6355 111.709 11.6355ZM116.022 17.5V10.7888H117.105V11.8098H117.205C117.504 11.0876 118.139 10.6705 119.016 10.6705C119.925 10.6705 120.56 11.1499 120.872 11.8472H120.971C121.332 11.1375 122.098 10.6705 123.026 10.6705C124.395 10.6705 125.161 11.455 125.161 12.8619V17.5H124.078V13.111C124.078 12.1211 123.623 11.6293 122.677 11.6293C121.743 11.6293 121.127 12.3328 121.127 13.1857V17.5H120.044V12.9429C120.044 12.146 119.496 11.6293 118.649 11.6293C117.771 11.6293 117.105 12.395 117.105 13.3413V17.5H116.022ZM130.974 11.4052C130.532 11.4052 130.165 11.0378 130.165 10.5958C130.165 10.1476 130.532 9.7865 130.974 9.7865C131.422 9.7865 131.783 10.1476 131.783 10.5958C131.783 11.0378 131.422 11.4052 130.974 11.4052ZM130.974 16.2238C130.532 16.2238 130.165 15.8564 130.165 15.4144C130.165 14.9662 130.532 14.6051 130.974 14.6051C131.422 14.6051 131.783 14.9662 131.783 15.4144C131.783 15.8564 131.422 16.2238 130.974 16.2238ZM135.835 18.8136C134.621 17.2012 134.067 15.321 134.067 13.0051C134.067 10.6954 134.615 8.80908 135.835 7.19666H136.744C135.841 8.34839 135.169 10.8448 135.169 13.0051C135.169 15.1841 135.841 17.6619 136.744 18.8136H135.835Z" fill="white"></path> </svg> 