<?xml version="1.0" encoding="UTF-8"?> <svg xmlns="http://www.w3.org/2000/svg" width="90" height="45" viewBox="0 0 90 45" fill="none"> <path d="M22.04 44.64C8.216 44.64 0.6 35.936 0.6 22.56C0.6 9.248 8.216 0.48 22.04 0.48C35.8 0.48 43.48 9.248 43.48 22.56C43.48 35.936 35.8 44.64 22.04 44.64ZM22.04 35.296C30.168 35.296 33.176 31.776 33.176 22.56C33.176 13.344 30.168 9.824 22.04 9.824C13.848 9.824 10.904 13.344 10.904 22.56C10.904 31.776 13.848 35.296 22.04 35.296ZM83.112 44H73.512V35.808H46.312V29.28L71.976 1.12H83.112V27.168H89.64V35.808H83.112V44ZM59.688 27.168H73.512V12.192H72.808L59.688 26.464V27.168Z" fill="#1670F8"></path> </svg> 