<?xml version="1.0" encoding="UTF-8"?> <svg xmlns="http://www.w3.org/2000/svg" width="205" height="42" viewBox="0 0 205 42" fill="none"> <path d="M0.0890255 41.8982C4.20665 42.4887 8.27148 40.3753 9.59123 39.0221C8.23093 35.9985 16.6291 28.6547 11.0862 28.6544C9.80448 28.6544 8.70978 25.5248 4.04827 27.8744C4.03148 28.8242 4.04827 32.1119 4.04827 32.6717C4.04827 40.4217 -0.702825 41.4529 0.0890255 41.8982Z" fill="black"></path> <rect x="4.07507" width="200.175" height="42" rx="13.5" fill="black"></rect> <path d="M17.9434 17.7117C15.4594 17.7117 13.8718 15.8813 13.8718 13.0114V12.9989C13.8718 10.1663 15.4843 8.30481 17.9434 8.30481C19.9355 8.30481 21.3363 9.42542 21.6912 11.1312L21.7036 11.1935H20.5706L20.5519 11.1312C20.1846 9.97327 19.2819 9.33826 17.9434 9.33826C16.1628 9.33826 15.0173 10.7701 15.0173 12.9989V13.0114C15.0173 15.2712 16.1442 16.6782 17.9496 16.6782C19.5558 16.6782 20.639 15.651 20.639 14.132V13.9141H18.1177V12.9304H21.7596V14.0261C21.7596 16.2424 20.2406 17.7117 17.9434 17.7117ZM23.3026 17.5V10.7888H24.3859V11.7849H24.4855C24.7408 11.0814 25.3695 10.6705 26.2785 10.6705C26.4839 10.6705 26.7143 10.6954 26.8201 10.7141V11.7662C26.596 11.7289 26.3905 11.704 26.154 11.704C25.1205 11.704 24.3859 12.3577 24.3859 13.3413V17.5H23.3026ZM30.4051 17.6183C28.4876 17.6183 27.3297 16.2736 27.3297 14.1693V14.1631C27.3297 12.09 28.5125 10.6705 30.3366 10.6705C32.1607 10.6705 33.2689 12.0277 33.2689 14.0323V14.4557H28.4378C28.4689 15.844 29.2347 16.6533 30.43 16.6533C31.3389 16.6533 31.8992 16.2238 32.0798 15.8191L32.1047 15.7631H33.1879L33.1755 15.8129C32.9451 16.7218 31.9864 17.6183 30.4051 17.6183ZM30.3304 11.6355C29.3343 11.6355 28.5748 12.3141 28.4565 13.5903H32.1669C32.0549 12.2643 31.3203 11.6355 30.3304 11.6355ZM36.4865 17.6183C35.2103 17.6183 34.2453 16.8463 34.2453 15.6261V15.6136C34.2453 14.4183 35.1294 13.7273 36.692 13.6339L38.6157 13.5156V12.9055C38.6157 12.0775 38.1114 11.6293 37.1091 11.6293C36.306 11.6293 35.7768 11.9281 35.6025 12.451L35.5963 12.4697H34.513L34.5193 12.4324C34.6936 11.3802 35.7146 10.6705 37.1465 10.6705C38.7838 10.6705 39.6989 11.511 39.6989 12.9055V17.5H38.6157V16.5101H38.5161C38.0927 17.2261 37.3893 17.6183 36.4865 17.6183ZM35.3535 15.6012C35.3535 16.2798 35.9325 16.6782 36.7107 16.6782C37.8126 16.6782 38.6157 15.9561 38.6157 14.9973V14.3872L36.8227 14.4993C35.8017 14.5615 35.3535 14.9226 35.3535 15.5887V15.6012ZM43.7571 17.5498C42.375 17.5498 41.796 17.0393 41.796 15.7568V11.6853H40.7377V10.7888H41.796V9.05188H42.9166V10.7888H44.3859V11.6853H42.9166V15.4829C42.9166 16.2736 43.1906 16.5911 43.8878 16.5911C44.0808 16.5911 44.1866 16.5848 44.3859 16.5662V17.4875C44.1742 17.5249 43.9688 17.5498 43.7571 17.5498ZM46.153 14.5117L46.0471 8.51025H47.2923L47.1864 14.5117H46.153ZM46.6759 17.6121C46.1717 17.6121 45.8106 17.251 45.8106 16.7467C45.8106 16.2362 46.1717 15.8751 46.6759 15.8751C47.1802 15.8751 47.5351 16.2362 47.5351 16.7467C47.5351 17.251 47.1802 17.6121 46.6759 17.6121ZM52.7813 17.5V8.51648H53.9019V17.5H52.7813ZM59.0922 17.5V8.12427H60.1754V13.7211H60.2751L63.1762 10.7888H64.4898L61.5637 13.609L64.6828 17.5H63.3194L60.8042 14.3436L60.1754 14.9537V17.5H59.0922ZM65.6468 17.5V10.7888H66.73V11.7974H66.8296C67.1658 11.0876 67.7946 10.6705 68.7845 10.6705C70.2911 10.6705 71.1315 11.5608 71.1315 13.1545V17.5H70.0483V13.416C70.0483 12.2083 69.5502 11.6293 68.4794 11.6293C67.4086 11.6293 66.73 12.3514 66.73 13.5281V17.5H65.6468ZM75.5258 17.6183C73.6084 17.6183 72.4504 16.2736 72.4504 14.1693V14.1631C72.4504 12.09 73.6333 10.6705 75.4574 10.6705C77.2815 10.6705 78.3896 12.0277 78.3896 14.0323V14.4557H73.5586C73.5897 15.844 74.3554 16.6533 75.5507 16.6533C76.4597 16.6533 77.02 16.2238 77.2005 15.8191L77.2254 15.7631H78.3087L78.2962 15.8129C78.0659 16.7218 77.1071 17.6183 75.5258 17.6183ZM75.4511 11.6355C74.455 11.6355 73.6955 12.3141 73.5772 13.5903H77.2877C77.1756 12.2643 76.441 11.6355 75.4511 11.6355ZM81.0594 17.5L79.1793 10.7888H80.2626L81.5824 16.1553H81.682L83.1824 10.7888H84.2096L85.71 16.1553H85.8096L87.1294 10.7888H88.2064L86.3263 17.5H85.2368L83.7365 12.3079H83.6368L82.1427 17.5H81.0594ZM92.7492 17.5V8.51648H93.8698V17.5H92.7492ZM101.743 17.6183C99.8632 17.6183 98.6616 16.2549 98.6616 14.1257V14.1133C98.6616 12.0277 99.8569 10.6705 101.737 10.6705C103.368 10.6705 104.346 11.6106 104.545 12.8059L104.551 12.8433H103.474L103.468 12.8246C103.3 12.1647 102.702 11.6293 101.737 11.6293C100.529 11.6293 99.7698 12.6005 99.7698 14.1133V14.1257C99.7698 15.6697 100.542 16.6595 101.737 16.6595C102.64 16.6595 103.213 16.2611 103.462 15.514L103.474 15.4767L104.545 15.4705L104.532 15.5389C104.258 16.7529 103.356 17.6183 101.743 17.6183ZM108.584 17.6183C106.673 17.6183 105.49 16.2985 105.49 14.1506V14.1382C105.49 11.9841 106.673 10.6705 108.584 10.6705C110.496 10.6705 111.678 11.9841 111.678 14.1382V14.1506C111.678 16.2985 110.496 17.6183 108.584 17.6183ZM108.584 16.6595C109.854 16.6595 110.57 15.7319 110.57 14.1506V14.1382C110.57 12.5507 109.854 11.6293 108.584 11.6293C107.314 11.6293 106.598 12.5507 106.598 14.1382V14.1506C106.598 15.7319 107.314 16.6595 108.584 16.6595ZM115.301 17.6183C113.775 17.6183 112.991 16.7218 112.991 15.1343V10.7888H114.074V14.8728C114.074 16.0806 114.51 16.6595 115.581 16.6595C116.764 16.6595 117.393 15.9374 117.393 14.7607V10.7888H118.476V17.5H117.393V16.4977H117.293C116.963 17.2136 116.284 17.6183 115.301 17.6183ZM120.255 17.5V8.12427H121.339V17.5H120.255ZM125.59 17.6183C123.89 17.6183 122.776 16.2424 122.776 14.1506V14.1382C122.776 12.0339 123.884 10.6705 125.59 10.6705C126.511 10.6705 127.314 11.1312 127.682 11.8472H127.781V8.12427H128.864V17.5H127.781V16.4292H127.682C127.271 17.1763 126.524 17.6183 125.59 17.6183ZM125.839 16.6595C127.059 16.6595 127.806 15.7008 127.806 14.1506V14.1382C127.806 12.588 127.059 11.6293 125.839 11.6293C124.612 11.6293 123.884 12.5756 123.884 14.1382V14.1506C123.884 15.7133 124.612 16.6595 125.839 16.6595ZM136.663 17.6183C134.783 17.6183 133.581 16.2549 133.581 14.1257V14.1133C133.581 12.0277 134.777 10.6705 136.657 10.6705C138.288 10.6705 139.265 11.6106 139.465 12.8059L139.471 12.8433H138.394L138.388 12.8246C138.22 12.1647 137.622 11.6293 136.657 11.6293C135.449 11.6293 134.69 12.6005 134.69 14.1133V14.1257C134.69 15.6697 135.462 16.6595 136.657 16.6595C137.56 16.6595 138.132 16.2611 138.381 15.514L138.394 15.4767L139.465 15.4705L139.452 15.5389C139.178 16.7529 138.276 17.6183 136.663 17.6183ZM143.504 17.6183C141.593 17.6183 140.41 16.2985 140.41 14.1506V14.1382C140.41 11.9841 141.593 10.6705 143.504 10.6705C145.415 10.6705 146.598 11.9841 146.598 14.1382V14.1506C146.598 16.2985 145.415 17.6183 143.504 17.6183ZM143.504 16.6595C144.774 16.6595 145.49 15.7319 145.49 14.1506V14.1382C145.49 12.5507 144.774 11.6293 143.504 11.6293C142.234 11.6293 141.518 12.5507 141.518 14.1382V14.1506C141.518 15.7319 142.234 16.6595 143.504 16.6595ZM150.221 17.6183C148.695 17.6183 147.911 16.7218 147.911 15.1343V10.7888H148.994V14.8728C148.994 16.0806 149.43 16.6595 150.501 16.6595C151.684 16.6595 152.312 15.9374 152.312 14.7607V10.7888H153.396V17.5H152.312V16.4977H152.213C151.883 17.2136 151.204 17.6183 150.221 17.6183ZM155.113 17.5V10.7888H156.196V11.7974H156.296C156.632 11.0876 157.261 10.6705 158.251 10.6705C159.757 10.6705 160.598 11.5608 160.598 13.1545V17.5H159.514V13.416C159.514 12.2083 159.016 11.6293 157.946 11.6293C156.875 11.6293 156.196 12.3514 156.196 13.5281V17.5H155.113ZM164.637 17.5498C163.255 17.5498 162.676 17.0393 162.676 15.7568V11.6853H161.618V10.7888H162.676V9.05188H163.797V10.7888H165.266V11.6853H163.797V15.4829C163.797 16.2736 164.071 16.5911 164.768 16.5911C164.961 16.5911 165.067 16.5848 165.266 16.5662V17.4875C165.054 17.5249 164.849 17.5498 164.637 17.5498ZM172.616 17.6183C170.705 17.6183 169.522 16.2985 169.522 14.1506V14.1382C169.522 11.9841 170.705 10.6705 172.616 10.6705C174.528 10.6705 175.711 11.9841 175.711 14.1382V14.1506C175.711 16.2985 174.528 17.6183 172.616 17.6183ZM172.616 16.6595C173.886 16.6595 174.602 15.7319 174.602 14.1506V14.1382C174.602 12.5507 173.886 11.6293 172.616 11.6293C171.346 11.6293 170.63 12.5507 170.63 14.1382V14.1506C170.63 15.7319 171.346 16.6595 172.616 16.6595ZM177.085 17.5V10.7888H178.169V11.7974H178.268C178.605 11.0876 179.233 10.6705 180.223 10.6705C181.73 10.6705 182.57 11.5608 182.57 13.1545V17.5H181.487V13.416C181.487 12.2083 180.989 11.6293 179.918 11.6293C178.847 11.6293 178.169 12.3514 178.169 13.5281V17.5H177.085ZM14.6562 35.8533C14.5131 35.8533 14.3263 35.8408 14.1769 35.8159V34.9257C14.3076 34.9506 14.4757 34.9568 14.6251 34.9568C15.2415 34.9568 15.615 34.6766 15.8578 33.9047L15.9823 33.5062L13.4983 26.7888H14.6562L16.499 32.3109H16.5986L18.4352 26.7888H19.5745L16.9535 33.9109C16.3994 35.4175 15.8453 35.8533 14.6562 35.8533ZM23.2093 33.6183C21.298 33.6183 20.1151 32.2985 20.1151 30.1506V30.1382C20.1151 27.9841 21.298 26.6705 23.2093 26.6705C25.1205 26.6705 26.3034 27.9841 26.3034 30.1382V30.1506C26.3034 32.2985 25.1205 33.6183 23.2093 33.6183ZM23.2093 32.6595C24.4793 32.6595 25.1952 31.7319 25.1952 30.1506V30.1382C25.1952 28.5507 24.4793 27.6293 23.2093 27.6293C21.9392 27.6293 21.2233 28.5507 21.2233 30.1382V30.1506C21.2233 31.7319 21.9392 32.6595 23.2093 32.6595ZM29.9257 33.6183C28.4005 33.6183 27.616 32.7218 27.616 31.1343V26.7888H28.6993V30.8728C28.6993 32.0806 29.1351 32.6595 30.2059 32.6595C31.3887 32.6595 32.0175 31.9374 32.0175 30.7607V26.7888H33.1008V33.5H32.0175V32.4977H31.9179C31.588 33.2136 30.9094 33.6183 29.9257 33.6183ZM35.7021 33.5623C35.2601 33.5623 34.8928 33.1949 34.8928 32.7529C34.8928 32.3047 35.2601 31.9436 35.7021 31.9436C36.1504 31.9436 36.5114 32.3047 36.5114 32.7529C36.5114 33.1949 36.1504 33.5623 35.7021 33.5623ZM44.0487 33.5V25.525H41.1538V24.5165H48.0642V25.525H45.1693V33.5H44.0487ZM49.4142 33.5V24.1243H50.4975V27.7974H50.5971C50.9333 27.0876 51.5621 26.6705 52.5519 26.6705C54.0585 26.6705 54.899 27.5608 54.899 29.1545V33.5H53.8157V29.416C53.8157 28.2083 53.3177 27.6293 52.2469 27.6293C51.1761 27.6293 50.4975 28.3514 50.4975 29.5281V33.5H49.4142ZM58.3968 33.6183C57.1206 33.6183 56.1556 32.8463 56.1556 31.6261V31.6136C56.1556 30.4183 57.0396 29.7273 58.6023 29.6339L60.526 29.5156V28.9055C60.526 28.0775 60.0217 27.6293 59.0194 27.6293C58.2163 27.6293 57.6871 27.9281 57.5128 28.451L57.5066 28.4697H56.4233L56.4295 28.4324C56.6039 27.3802 57.6248 26.6705 59.0567 26.6705C60.6941 26.6705 61.6092 27.511 61.6092 28.9055V33.5H60.526V32.5101H60.4264C60.003 33.2261 59.2995 33.6183 58.3968 33.6183ZM57.2638 31.6012C57.2638 32.2798 57.8427 32.6782 58.6209 32.6782C59.7229 32.6782 60.526 31.9561 60.526 30.9973V30.3872L58.733 30.4993C57.712 30.5615 57.2638 30.9226 57.2638 31.5887V31.6012ZM63.283 33.5V26.7888H64.3662V27.7974H64.4658C64.802 27.0876 65.4308 26.6705 66.4207 26.6705C67.9272 26.6705 68.7677 27.5608 68.7677 29.1545V33.5H67.6844V29.416C67.6844 28.2083 67.1864 27.6293 66.1156 27.6293C65.0448 27.6293 64.3662 28.3514 64.3662 29.5281V33.5H63.283ZM70.485 33.5V24.1243H71.5683V29.7211H71.6679L74.569 26.7888H75.8826L72.9566 29.609L76.0756 33.5H74.7122L72.197 30.3436L71.5683 30.9537V33.5H70.485ZM79.0941 33.6183C77.5999 33.6183 76.5727 32.8961 76.4482 31.788H77.5563C77.7369 32.3483 78.2723 32.7156 79.1314 32.7156C80.0341 32.7156 80.6754 32.286 80.6754 31.6759V31.6635C80.6754 31.209 80.3329 30.8915 79.5049 30.6923L78.4653 30.4432C77.2077 30.1444 76.6412 29.5966 76.6412 28.6316V28.6254C76.6412 27.511 77.712 26.6705 79.1376 26.6705C80.5446 26.6705 81.522 27.374 81.6714 28.4697H80.6069C80.4637 27.9406 79.9407 27.5732 79.1314 27.5732C78.3345 27.5732 77.7493 27.9841 77.7493 28.5756V28.588C77.7493 29.0425 78.0855 29.3289 78.8762 29.5219L79.9096 29.7709C81.1734 30.0759 81.7835 30.6238 81.7835 31.5825V31.595C81.7835 32.7903 80.6193 33.6183 79.0941 33.6183ZM84.0424 33.5623C83.6004 33.5623 83.2331 33.1949 83.2331 32.7529C83.2331 32.3047 83.6004 31.9436 84.0424 31.9436C84.4907 31.9436 84.8518 32.3047 84.8518 32.7529C84.8518 33.1949 84.4907 33.5623 84.0424 33.5623Z" fill="white"></path> </svg> 